<svg xmlns="http://www.w3.org/2000/svg" id="Layer_1" data-name="Layer 1" viewBox="0 0 540.67 409.65"><defs><style>.cls-1,.cls-6{fill:#262f6a}.cls-1{opacity:.1}.cls-2,.cls-5{fill:#fff}.cls-2,.cls-3,.cls-4,.cls-5,.cls-7{stroke:#262f6a}.cls-2,.cls-3,.cls-4,.cls-5,.cls-7,.cls-8{stroke-miterlimit:10}.cls-2,.cls-7{stroke-width:6px}.cls-3,.cls-4,.cls-7,.cls-8{fill:none}.cls-3,.cls-5,.cls-8{stroke-width:3px}.cls-4{stroke-width:10px}.cls-7{stroke-linecap:round}.cls-8{stroke:#26306a}</style></defs><title>camping</title><circle cx="269.19" cy="167.17" r="160.26" class="cls-1"/><polygon points="502.9 393.57 442.27 245.09 271.65 54.13 98.13 246.85 32.88 393.57 502.9 393.57" class="cls-2"/><line x1="271.75" x2="378.69" y1="64.57" y2="389.56" class="cls-3"/><line x1="270.98" x2="63.82" y1="323.05" y2="323.05" class="cls-4"/><line x1="270.98" x2="73.33" y1="302.34" y2="302.34" class="cls-3"/><line x1="161.26" x2="100.58" y1="246.84" y2="246.84" class="cls-3"/><line x1="211.08" x2="178.79" y1="246.84" y2="246.84" class="cls-3"/><line x1="172.35" x2="166.79" y1="246.84" y2="246.84" class="cls-3"/><line x1="270.98" x2="54.34" y1="342.52" y2="343.02" class="cls-3"/><line x1="474.46" x2="281.47" y1="323.05" y2="323.05" class="cls-4"/><line x1="468.43" x2="286.57" y1="302.34" y2="302.34" class="cls-3"/><line x1="480.5" x2="282.36" y1="342.52" y2="343.02" class="cls-3"/><path d="M271.75,61.44l2,332,104.94-1.19L433,313.61C365.22,268.89,271.75,61.44,271.75,61.44Z" class="cls-5"/><polygon points="270.43 65.1 272.98 391.2 378.69 392.29 270.43 65.1" class="cls-6"/><line x1="22.13" x2="22.13" y1="374.32" y2="399.47" class="cls-3"/><line x1="16.36" x2="27.9" y1="373.22" y2="373.22" class="cls-3"/><line x1="513.65" x2="513.65" y1="374.48" y2="399.62" class="cls-3"/><line x1="507.88" x2="519.42" y1="373.37" y2="373.37" class="cls-3"/><line x1="439.09" x2="420.17" y1="246.84" y2="246.84" class="cls-3"/><line x1="414.14" x2="408.58" y1="246.84" y2="246.84" class="cls-3"/><line x1="348.94" x2="319.11" y1="207.46" y2="250.2" class="cls-3"/><line x1="360.37" x2="328.98" y1="228.28" y2="272.06" class="cls-3"/><line x1="372.23" x2="342.51" y1="245.48" y2="289.27" class="cls-3"/><line x1="385.24" x2="349.33" y1="265.3" y2="317.87" class="cls-3"/><line x1="302.77" x2="274.61" y1="122.43" y2="163.21" class="cls-3"/><line x1="313.32" x2="281.14" y1="144.28" y2="189" class="cls-3"/><line x1="323.51" x2="294.66" y1="164.47" y2="206.2" class="cls-3"/><line x1="335.72" x2="301.48" y1="184.2" y2="234.8" class="cls-3"/><line x1="282.52" x2="271.68" y1="82.96" y2="97.95" class="cls-3"/><line x1="291.75" x2="278.44" y1="103.16" y2="121.05" class="cls-3"/><line x1="397.82" x2="354.4" y1="282.99" y2="347.45" class="cls-3"/><line x1="415.14" x2="367.83" y1="298.47" y2="366.88" class="cls-3"/><line x1="9.5" x2="528.88" y1="399.62" y2="396.68" class="cls-7"/><path d="M158.94,206.39l-18.05,20.46s20.91-.91,32.52-16.39" class="cls-8"/><path d="M383.82,206.39l18.05,20.46s-20.91-.91-32.52-16.39" class="cls-8"/></svg>