<svg id="Layer_1" data-name="Layer 1" xmlns="http://www.w3.org/2000/svg" viewBox="0 0 364.11 399.23"><defs><style>.cls-1,.cls-6{fill:#262f6a;}.cls-1{opacity:0.1;}.cls-2{fill:#fff;}.cls-2,.cls-3,.cls-4,.cls-5,.cls-7{stroke:#262f6a;stroke-miterlimit:10;}.cls-2,.cls-3{stroke-width:6px;}.cls-3,.cls-4,.cls-5,.cls-7{fill:none;}.cls-4,.cls-5,.cls-7{stroke-width:3px;}.cls-4{stroke-dasharray:4;}.cls-7{stroke-linecap:round;}</style></defs><title>outdoor_protection</title><circle class="cls-1" cx="200.28" cy="163.6" r="160.26"/><line class="cls-2" x1="158.64" y1="336.66" x2="158.09" y2="26.17"/><line class="cls-2" x1="313.61" y1="181.87" x2="3.12" y2="182.43"/><line class="cls-3" x1="268.33" y1="291.32" x2="48.39" y2="72.16"/><line class="cls-3" x1="268.46" y1="72.29" x2="49.3" y2="292.23"/><line class="cls-4" x1="301.5" y1="241.37" x2="14.44" y2="123.06"/><line class="cls-4" x1="217.81" y1="38.97" x2="99.49" y2="326.03"/><line class="cls-4" x1="14.55" y1="241.16" x2="301.61" y2="122.85"/><line class="cls-4" x1="98.25" y1="38.76" x2="216.56" y2="325.82"/><circle class="cls-2" cx="157.63" cy="182.34" r="86.25"/><circle class="cls-5" cx="157.63" cy="183.26" r="62.37"/><line class="cls-5" x1="134.68" y1="125.53" x2="95.65" y2="174.98"/><line class="cls-5" x1="149.65" y1="122.03" x2="95.49" y2="191.63"/><line class="cls-5" x1="163.57" y1="121.62" x2="98.43" y2="203.46"/><line class="cls-5" x1="175.85" y1="123.67" x2="103.37" y2="215.33"/><line class="cls-5" x1="215.98" y1="162.16" x2="150.84" y2="243.99"/><line class="cls-5" x1="220.07" y1="174.85" x2="164.39" y2="246.09"/><line class="cls-5" x1="219.25" y1="194.5" x2="180.36" y2="242"/><line class="cls-5" x1="187.32" y1="128.58" x2="110.88" y2="225.34"/><line class="cls-5" x1="197.69" y1="133.89" x2="119.5" y2="232.68"/><line class="cls-5" x1="204.33" y1="142.46" x2="128.1" y2="238.53"/><line class="cls-5" x1="211.68" y1="150.07" x2="138.18" y2="243.23"/><path class="cls-2" d="M338.52,395.05H227.19c-10.88,0-19.71-8.51-19.71-19l5-185.67c0-10.49,8.82-19,19.71-19H333.53c10.88,0,19.71,8.51,19.71,19l5,185.67C358.22,386.55,349.4,395.05,338.52,395.05Z"/><rect class="cls-6" x="207.55" y="264.12" width="150.61" height="52.86"/><rect class="cls-6" x="210.24" y="245.03" width="145.62" height="9.24"/><rect class="cls-6" x="206.21" y="327.94" width="150.61" height="9.24"/><rect class="cls-6" x="265.46" y="148.38" width="35.34" height="25.07" rx="4.62" ry="4.62"/><path class="cls-5" d="M294.85,215.48l-8.08,7.79a5.91,5.91,0,0,1-8.14,0l-8.08-7.79a5.41,5.41,0,0,1,0-7.85l8.08-7.79a5.91,5.91,0,0,1,8.14,0l8.08,7.79A5.41,5.41,0,0,1,294.85,215.48Z"/><path class="cls-7" d="M238.78,183.43a13.85,13.85,0,0,0-13.85,13.85L224.47,213"/><circle class="cls-6" cx="244.01" cy="183.38" r="1.42"/><path class="cls-7" d="M333.51,384.26a13.85,13.85,0,0,0,13.85-13.85l-.53-15.68"/><circle class="cls-6" cx="328.28" cy="384.31" r="1.42"/></svg>