<svg xmlns="http://www.w3.org/2000/svg" id="Layer_1" data-name="Layer 1" viewBox="0 0 364.11 399.23"><defs><style>.cls-1,.cls-6{fill:#262f6a}.cls-1{opacity:.1}.cls-2{fill:#fff}.cls-2,.cls-3,.cls-4,.cls-5,.cls-7{stroke:#262f6a;stroke-miterlimit:10}.cls-2,.cls-3{stroke-width:6px}.cls-3,.cls-4,.cls-5,.cls-7{fill:none}.cls-4,.cls-5,.cls-7{stroke-width:3px}.cls-4{stroke-dasharray:4}.cls-7{stroke-linecap:round}</style></defs><title>outdoor_protection</title><circle cx="200.28" cy="163.6" r="160.26" class="cls-1"/><line x1="158.64" x2="158.09" y1="336.66" y2="26.17" class="cls-2"/><line x1="313.61" x2="3.12" y1="181.87" y2="182.43" class="cls-2"/><line x1="268.33" x2="48.39" y1="291.32" y2="72.16" class="cls-3"/><line x1="268.46" x2="49.3" y1="72.29" y2="292.23" class="cls-3"/><line x1="301.5" x2="14.44" y1="241.37" y2="123.06" class="cls-4"/><line x1="217.81" x2="99.49" y1="38.97" y2="326.03" class="cls-4"/><line x1="14.55" x2="301.61" y1="241.16" y2="122.85" class="cls-4"/><line x1="98.25" x2="216.56" y1="38.76" y2="325.82" class="cls-4"/><circle cx="157.63" cy="182.34" r="86.25" class="cls-2"/><circle cx="157.63" cy="183.26" r="62.37" class="cls-5"/><line x1="134.68" x2="95.65" y1="125.53" y2="174.98" class="cls-5"/><line x1="149.65" x2="95.49" y1="122.03" y2="191.63" class="cls-5"/><line x1="163.57" x2="98.43" y1="121.62" y2="203.46" class="cls-5"/><line x1="175.85" x2="103.37" y1="123.67" y2="215.33" class="cls-5"/><line x1="215.98" x2="150.84" y1="162.16" y2="243.99" class="cls-5"/><line x1="220.07" x2="164.39" y1="174.85" y2="246.09" class="cls-5"/><line x1="219.25" x2="180.36" y1="194.5" y2="242" class="cls-5"/><line x1="187.32" x2="110.88" y1="128.58" y2="225.34" class="cls-5"/><line x1="197.69" x2="119.5" y1="133.89" y2="232.68" class="cls-5"/><line x1="204.33" x2="128.1" y1="142.46" y2="238.53" class="cls-5"/><line x1="211.68" x2="138.18" y1="150.07" y2="243.23" class="cls-5"/><path d="M338.52,395.05H227.19c-10.88,0-19.71-8.51-19.71-19l5-185.67c0-10.49,8.82-19,19.71-19H333.53c10.88,0,19.71,8.51,19.71,19l5,185.67C358.22,386.55,349.4,395.05,338.52,395.05Z" class="cls-2"/><rect width="150.61" height="52.86" x="207.55" y="264.12" class="cls-6"/><rect width="145.62" height="9.24" x="210.24" y="245.03" class="cls-6"/><rect width="150.61" height="9.24" x="206.21" y="327.94" class="cls-6"/><rect width="35.34" height="25.07" x="265.46" y="148.38" class="cls-6" rx="4.62" ry="4.62"/><path d="M294.85,215.48l-8.08,7.79a5.91,5.91,0,0,1-8.14,0l-8.08-7.79a5.41,5.41,0,0,1,0-7.85l8.08-7.79a5.91,5.91,0,0,1,8.14,0l8.08,7.79A5.41,5.41,0,0,1,294.85,215.48Z" class="cls-5"/><path d="M238.78,183.43a13.85,13.85,0,0,0-13.85,13.85L224.47,213" class="cls-7"/><circle cx="244.01" cy="183.38" r="1.42" class="cls-6"/><path d="M333.51,384.26a13.85,13.85,0,0,0,13.85-13.85l-.53-15.68" class="cls-7"/><circle cx="328.28" cy="384.31" r="1.42" class="cls-6"/></svg>