<svg id="Layer_1" data-name="Layer 1" xmlns="http://www.w3.org/2000/svg" viewBox="0 0 413.68 416.1"><defs><style>.cls-1,.cls-3,.cls-6{fill:#262f6a;}.cls-1{opacity:0.1;}.cls-2,.cls-8,.cls-9{fill:#fff;}.cls-10,.cls-11,.cls-12,.cls-13,.cls-2,.cls-4,.cls-5,.cls-7,.cls-8,.cls-9{stroke:#262f6a;}.cls-2,.cls-4,.cls-6,.cls-9{stroke-linecap:round;}.cls-10,.cls-11,.cls-12,.cls-13,.cls-2,.cls-4,.cls-5,.cls-6,.cls-7,.cls-8,.cls-9{stroke-miterlimit:10;}.cls-2,.cls-7,.cls-8{stroke-width:6px;}.cls-10,.cls-11,.cls-12,.cls-13,.cls-4,.cls-5,.cls-7{fill:none;}.cls-11,.cls-4,.cls-5,.cls-6,.cls-9{stroke-width:3px;}.cls-6{stroke:#fff;}.cls-10{stroke-width:10px;}.cls-11{stroke-dasharray:8;}.cls-12{stroke-width:2px;}</style></defs><title>accessories</title><circle class="cls-1" cx="222.23" cy="171.95" r="160.26"/><path class="cls-2" d="M65.72,244.2a72.71,72.71,0,0,1,145.42-1Z"/><polygon class="cls-3" points="13.43 249.65 214.24 248.19 214.19 241.59 9.39 243.05 13.43 249.65"/><path class="cls-4" d="M137.93,171.45s-30.7,18.75-31.57,71.7"/><path class="cls-3" d="M140.34,173.59l12.72-.61s51.47,15.14,57.53,62.38l1.21,10.29-40.64-2.94c-1.59-52.93-32.55-71.26-32.55-71.26"/><path class="cls-3" d="M133.65,169.46h0a4.12,4.12,0,0,1,3.92-4.28h0a4.12,4.12,0,0,1,4.28,3.92h0"/><line class="cls-5" x1="89.95" y1="188.83" x2="110.15" y2="213.26"/><line class="cls-5" x1="83.92" y1="194.29" x2="108.22" y2="224.03"/><line class="cls-5" x1="78.77" y1="201.7" x2="106.79" y2="234.56"/><line class="cls-5" x1="74.57" y1="209.49" x2="103.86" y2="245.34"/><line class="cls-5" x1="111.32" y1="174.92" x2="122.2" y2="188.07"/><line class="cls-5" x1="104.21" y1="179.83" x2="117.98" y2="196.28"/><line class="cls-5" x1="120.27" y1="172.27" x2="127.32" y2="180.74"/><line class="cls-5" x1="97.09" y1="184.14" x2="114.1" y2="203.79"/><line class="cls-5" x1="69.88" y1="217.3" x2="91.33" y2="243.43"/><line class="cls-5" x1="67.35" y1="227.63" x2="81.04" y2="244.08"/><path class="cls-3" d="M154.26,137.16l-22.61-5.31-23.16,5.58-2.43-25.85s19.47-5.67,25.49-5.7,24.51,5.7,24.51,5.7Z"/><circle class="cls-6" cx="131.45" cy="118.49" r="7.28"/><circle class="cls-2" cx="84.27" cy="124.13" r="29.09"/><circle class="cls-3" cx="90.36" cy="103.72" r="1.25" transform="translate(-46.31 88.09) rotate(-42.41)"/><path class="cls-4" d="M63.16,125.24a22.18,22.18,0,0,1,22.18-22.18"/><circle class="cls-2" cx="179.13" cy="124.13" r="29.09"/><circle class="cls-3" cx="185.22" cy="103.72" r="1.25" transform="translate(-21.48 152.07) rotate(-42.41)"/><path class="cls-4" d="M158,125.24a22.18,22.18,0,0,1,22.18-22.18"/><path class="cls-7" d="M230.19,331.06c0-50.55,25.81-116.39,78.86-115.94,55.39.47,74.17,65.39,74.17,115.94"/><path class="cls-8" d="M381.37,324a7.51,7.51,0,0,1,0,15"/><path class="cls-8" d="M231.15,323.08a7.51,7.51,0,1,0,0,15"/><rect class="cls-3" x="293.16" y="242.65" width="27.12" height="13.75"/><circle class="cls-2" cx="306.73" cy="329.95" r="73.45"/><circle class="cls-9" cx="306.73" cy="329.95" r="62.58"/><line class="cls-10" x1="378.03" y1="331.32" x2="235.42" y2="331.32"/><line class="cls-5" x1="376.53" y1="311.92" x2="237.19" y2="311.92"/><line class="cls-5" x1="377.66" y1="349.55" x2="236.05" y2="350.02"/><line class="cls-5" x1="325.98" y1="281.13" x2="308.31" y2="299.29"/><line class="cls-5" x1="328.08" y1="290.02" x2="317.2" y2="301.13"/><polygon class="cls-2" points="344.05 185.76 399.52 191.04 399.52 69.59 344.05 64.32 283.25 69.18 227.77 63.91 227.77 185.36 283.25 190.63 344.05 185.76"/><line class="cls-4" x1="344.46" y1="80.14" x2="344.71" y2="164.92"/><line class="cls-4" x1="283.45" y1="71.08" x2="283.7" y2="155.86"/><line class="cls-4" x1="344.59" y1="64.28" x2="344.59" y2="73.71"/><line class="cls-4" x1="283.39" y1="167.7" x2="283.39" y2="188.44"/><line class="cls-4" x1="344.59" y1="173.47" x2="344.59" y2="182.91"/><path class="cls-11" d="M251.79,106.26s8.84,41.9,28.48,40.39,12.28-48.47,38.79-49.48c26-1,6.87,52.51,34.87,59.57C374,161.8,377.5,134,377.5,134"/><circle class="cls-5" cx="250.54" cy="100.99" r="5.3"/><rect class="cls-3" x="367.92" y="123.96" width="21.93" height="3.8" transform="translate(193.47 -227.72) rotate(43.95)"/><rect class="cls-3" x="367.92" y="123.96" width="21.93" height="3.8" transform="translate(25.31 311.28) rotate(-46.05)"/><circle class="cls-2" cx="151.9" cy="331.74" r="35.8"/><polygon class="cls-3" points="160.06 339.62 169.22 314.93 143.87 324 160.06 339.62"/><path class="cls-3" d="M144.68,327.53l5.57,5.35,6.13,5.88-18.26,6.59,6.56-17.81m-.82-3.56-9.1,24.71,25.33-9.14-8.45-8.11L143.86,324Z"/><line class="cls-12" x1="151.74" y1="302.93" x2="151.74" y2="312.88"/><line class="cls-13" x1="151.74" y1="352.51" x2="151.74" y2="358.02"/><line class="cls-13" x1="173.67" y1="331.2" x2="179.19" y2="331.2"/><line class="cls-13" x1="124.62" y1="331.2" x2="130.13" y2="331.2"/><rect class="cls-3" x="147.29" y="283.78" width="8.43" height="10.01"/><circle class="cls-5" cx="151.43" cy="280.64" r="8.99"/></svg>