<svg id="Layer_1" data-name="Layer 1" xmlns="http://www.w3.org/2000/svg" viewBox="0 0 540.67 409.65"><defs><style>.cls-1,.cls-6{fill:#262f6a;}.cls-1{opacity:0.1;}.cls-2,.cls-5{fill:#fff;}.cls-2,.cls-3,.cls-4,.cls-5,.cls-7{stroke:#262f6a;}.cls-2,.cls-3,.cls-4,.cls-5,.cls-7,.cls-8{stroke-miterlimit:10;}.cls-2,.cls-7{stroke-width:6px;}.cls-3,.cls-4,.cls-7,.cls-8{fill:none;}.cls-3,.cls-5,.cls-8{stroke-width:3px;}.cls-4{stroke-width:10px;}.cls-7{stroke-linecap:round;}.cls-8{stroke:#26306a;}</style></defs><title>camping</title><circle class="cls-1" cx="269.19" cy="167.17" r="160.26"/><polygon class="cls-2" points="502.9 393.57 442.27 245.09 271.65 54.13 98.13 246.85 32.88 393.57 502.9 393.57"/><line class="cls-3" x1="271.75" y1="64.57" x2="378.69" y2="389.56"/><line class="cls-4" x1="270.98" y1="323.05" x2="63.82" y2="323.05"/><line class="cls-3" x1="270.98" y1="302.34" x2="73.33" y2="302.34"/><line class="cls-3" x1="161.26" y1="246.84" x2="100.58" y2="246.84"/><line class="cls-3" x1="211.08" y1="246.84" x2="178.79" y2="246.84"/><line class="cls-3" x1="172.35" y1="246.84" x2="166.79" y2="246.84"/><line class="cls-3" x1="270.98" y1="342.52" x2="54.34" y2="343.02"/><line class="cls-4" x1="474.46" y1="323.05" x2="281.47" y2="323.05"/><line class="cls-3" x1="468.43" y1="302.34" x2="286.57" y2="302.34"/><line class="cls-3" x1="480.5" y1="342.52" x2="282.36" y2="343.02"/><path class="cls-5" d="M271.75,61.44l2,332,104.94-1.19L433,313.61C365.22,268.89,271.75,61.44,271.75,61.44Z"/><polygon class="cls-6" points="270.43 65.1 272.98 391.2 378.69 392.29 270.43 65.1"/><line class="cls-3" x1="22.13" y1="374.32" x2="22.13" y2="399.47"/><line class="cls-3" x1="16.36" y1="373.22" x2="27.9" y2="373.22"/><line class="cls-3" x1="513.65" y1="374.48" x2="513.65" y2="399.62"/><line class="cls-3" x1="507.88" y1="373.37" x2="519.42" y2="373.37"/><line class="cls-3" x1="439.09" y1="246.84" x2="420.17" y2="246.84"/><line class="cls-3" x1="414.14" y1="246.84" x2="408.58" y2="246.84"/><line class="cls-3" x1="348.94" y1="207.46" x2="319.11" y2="250.2"/><line class="cls-3" x1="360.37" y1="228.28" x2="328.98" y2="272.06"/><line class="cls-3" x1="372.23" y1="245.48" x2="342.51" y2="289.27"/><line class="cls-3" x1="385.24" y1="265.3" x2="349.33" y2="317.87"/><line class="cls-3" x1="302.77" y1="122.43" x2="274.61" y2="163.21"/><line class="cls-3" x1="313.32" y1="144.28" x2="281.14" y2="189"/><line class="cls-3" x1="323.51" y1="164.47" x2="294.66" y2="206.2"/><line class="cls-3" x1="335.72" y1="184.2" x2="301.48" y2="234.8"/><line class="cls-3" x1="282.52" y1="82.96" x2="271.68" y2="97.95"/><line class="cls-3" x1="291.75" y1="103.16" x2="278.44" y2="121.05"/><line class="cls-3" x1="397.82" y1="282.99" x2="354.4" y2="347.45"/><line class="cls-3" x1="415.14" y1="298.47" x2="367.83" y2="366.88"/><line class="cls-7" x1="9.5" y1="399.62" x2="528.88" y2="396.68"/><path class="cls-8" d="M158.94,206.39l-18.05,20.46s20.91-.91,32.52-16.39"/><path class="cls-8" d="M383.82,206.39l18.05,20.46s-20.91-.91-32.52-16.39"/></svg>