<svg xmlns="http://www.w3.org/2000/svg" xmlns:xlink="http://www.w3.org/1999/xlink" width="31" height="32" version="1.1" viewBox="0 0 31 32"><title>Group 4</title><desc>Created with Sketch.</desc><g id="Page-1" fill="none" fill-rule="evenodd" stroke="none" stroke-width="1"><g id="Desktop-HD-Copy-2" transform="translate(-29.000000, -798.000000)"><g id="Group-4" transform="translate(29.000000, 798.000000)"><path id="Shape" fill="#5AAAFA" d="M31,21.2550568 C31,22.4305039 30.0007059,23.4432921 28.8117647,23.4432921 L24.0705882,23.4432921 C23.6646706,23.4432921 23.3411765,23.7182804 23.3411765,24.1727039 L23.3411765,30.7374098 C23.3411765,31.0065627 23.2489059,31.1021157 23.0067412,31.1021157 C22.9221294,31.1021157 22.8349647,31.0459509 22.6912706,30.9354451 L13.9503647,24.1727039 C12.8562471,23.4432921 11.7150824,23.4411039 11.7150824,23.4411039 L2.15249412,23.4403745 C0.963552941,23.4403745 0,22.487398 0,21.3119509 L0,2.66636271 C0,1.49164506 1.05618824,0.46098624 2.18823529,0.466821534 L28.8117647,0.466821534 C30.1108471,0.466821534 31,1.47997447 31,2.65505683 L31,21.2550568 Z"/><path id="Shape" fill="#FFF" fill-rule="nonzero" d="M14.9036094,8.15820312 L14.9036094,11.8537031 C14.9036094,14.7057031 13.0381094,16.6387031 10.4121094,17.1582031 L9.91460937,16.0827031 C11.1306094,15.6242031 11.9121094,14.2637031 11.9121094,13.1582031 L9.91210938,13.1582031 L9.91210938,8.15820312 L14.9036094,8.15820312 Z M21.9121094,8.15820312 L21.9121094,11.8537031 C21.9121094,14.7057031 20.0381094,16.6392031 17.4121094,17.1582031 L16.9141094,16.0827031 C18.1306094,15.6242031 18.9121094,14.2637031 18.9121094,13.1582031 L16.9206094,13.1582031 L16.9206094,8.15820312 L21.9121094,8.15820312 Z"/></g></g></g></svg>