<?xml version="1.0" encoding="UTF-8" standalone="no"?>
<!DOCTYPE svg PUBLIC "-//W3C//DTD SVG 1.1//EN" "http://www.w3.org/Graphics/SVG/1.1/DTD/svg11.dtd">
<svg version="1.1" xmlns="http://www.w3.org/2000/svg" xmlns:xlink="http://www.w3.org/1999/xlink" preserveAspectRatio="xMidYMid meet" viewBox="0 0 640 640" width="640" height="640"><defs><path d="M639.28 281.76L639.54 284.41L639.74 287.05L639.88 289.69L639.97 292.32L640 294.96L639.98 297.59L639.9 300.21L639.76 302.83L639.57 305.44L639.33 308.05L639.02 310.64L638.67 313.23L638.26 315.81L637.8 318.38L637.28 320.93L636.71 323.47L636.09 326L635.41 328.52L634.68 331.02L633.9 333.5L633.07 335.97L632.18 338.42L631.24 340.85L630.26 343.26L629.22 345.66L628.13 348.03L626.99 350.38L625.8 352.71L624.55 355.01L623.26 357.29L621.92 359.54L620.53 361.77L619.09 363.97L617.61 366.15L616.07 368.29L614.49 370.41L612.85 372.49L611.17 374.55L609.45 376.57L607.66 378.52L605.84 380.43L603.98 382.3L602.09 384.12L600.16 385.9L598.2 387.63L596.2 389.33L594.18 390.97L592.12 392.57L590.03 394.13L587.91 395.64L585.76 397.1L583.58 398.52L581.38 399.89L579.15 401.21L576.89 402.48L574.61 403.71L572.3 404.89L569.97 406.02L567.61 407.1L565.24 408.13L562.84 409.11L560.42 410.04L557.98 410.92L555.53 411.75L553.05 412.53L550.56 413.26L548.05 413.93L545.53 414.56L542.99 415.13L540.44 415.64L537.87 416.11L535.29 416.52L532.7 416.87L530.1 417.18L527.49 417.42L524.87 417.62L522.24 417.75L519.6 417.83L516.95 417.86L418.48 417.86L418.48 513.45L418.37 517.82L418.12 522.15L417.72 526.46L417.17 530.72L416.48 534.94L415.64 539.11L414.67 543.24L413.56 547.32L412.31 551.34L410.93 555.3L409.42 559.21L407.79 563.06L406.03 566.84L404.14 570.55L402.14 574.19L400.01 577.76L397.78 581.25L395.42 584.66L392.96 588L390.38 591.24L387.7 594.4L384.92 597.47L382.03 600.45L379.05 603.32L375.96 606.1L372.78 608.78L369.51 611.36L366.15 613.82L362.7 616.18L359.16 618.42L355.54 620.55L351.84 622.56L348.06 624.45L344.2 626.21L340.27 627.84L336.27 629.35L332.2 630.72L328.06 631.96L323.85 633.06L319.59 634.01L297.5 638.55L295.63 638.89L293.77 639.16L291.91 639.35L290.06 639.48L288.21 639.53L286.38 639.51L284.55 639.42L282.74 639.27L280.94 639.05L279.15 638.77L277.39 638.42L275.64 638L273.91 637.53L272.2 636.99L270.52 636.39L268.86 635.73L267.23 635.02L265.63 634.24L264.05 633.41L262.51 632.52L261 631.58L259.53 630.58L258.09 629.53L256.69 628.43L255.33 627.28L254.01 626.07L252.73 624.82L251.5 623.52L250.31 622.17L249.17 620.78L248.08 619.34L247.04 617.85L246.05 616.32L245.11 614.75L244.23 613.14L243.41 611.49L242.65 609.8L241.94 608.06L241.3 606.3L240.72 604.49L154.01 320L0 320L0 0L601.81 0L638.97 279.12L639.28 281.76ZM196.95 291.72L287.79 590.04L309.88 585.5L312.45 584.94L314.98 584.29L317.47 583.56L319.91 582.75L322.32 581.86L324.68 580.88L327 579.83L329.27 578.71L331.5 577.51L333.67 576.24L335.8 574.9L337.87 573.49L339.89 572.01L341.86 570.47L343.77 568.87L345.62 567.2L347.41 565.48L349.15 563.69L350.82 561.85L352.42 559.96L353.97 558.01L355.45 556.01L356.86 553.96L358.2 551.87L359.47 549.72L360.67 547.54L361.79 545.31L362.84 543.04L363.82 540.73L364.72 538.38L365.54 536L366.28 533.58L366.94 531.13L367.51 528.65L368 526.15L368.4 523.61L368.72 521.05L368.95 518.47L369.09 515.86L369.14 513.24L369.14 368.72L516.95 368.72L519.99 368.66L523 368.47L525.97 368.17L528.91 367.74L531.81 367.21L534.66 366.56L537.48 365.8L540.25 364.94L542.97 363.97L545.64 362.9L548.25 361.73L550.82 360.46L553.32 359.09L555.77 357.64L558.15 356.09L560.47 354.45L562.72 352.73L564.9 350.93L567.01 349.04L569.05 347.08L571.01 345.04L572.89 342.92L574.69 340.74L576.4 338.48L578.03 336.16L579.58 333.77L581.03 331.32L582.39 328.82L583.65 326.25L584.82 323.63L585.88 320.96L586.84 318.24L587.7 315.47L588.45 312.65L589.09 309.79L589.62 306.89L590.04 303.96L590.34 300.98L590.52 297.97L590.58 294.94L590.57 294.72L590.57 294.5L590.57 294.28L590.57 294.05L590.57 293.83L590.56 293.61L590.56 293.39L590.55 293.17L590.55 292.95L590.54 292.73L590.53 292.51L590.52 292.29L590.52 292.07L590.51 291.85L590.5 291.63L590.49 291.41L590.48 291.19L590.46 290.97L590.45 290.75L590.44 290.53L590.42 290.31L590.41 290.09L590.4 289.87L590.38 289.65L590.36 289.43L590.35 289.21L590.33 288.99L590.31 288.77L590.29 288.55L590.27 288.33L590.25 288.11L590.23 287.89L590.21 287.68L590.19 287.46L590.16 287.24L590.14 287.02L590.12 286.8L590.09 286.58L590.06 286.36L590.04 286.14L590.66 285.73L558.66 49.34L196.95 49.34L196.95 291.72ZM49.34 270.86L147.82 270.86L147.82 49.34L49.34 49.34L49.34 270.86Z" id="b1MGRlZny"></path></defs><g><g><g><use xlink:href="#b1MGRlZny" opacity="1" fill="#15bcc3" fill-opacity="1"></use><g><use xlink:href="#b1MGRlZny" opacity="1" fill-opacity="0" stroke="#000000" stroke-width="1" stroke-opacity="0"></use></g></g></g></g></svg>