<svg xmlns="http://www.w3.org/2000/svg" viewBox="0 0 31 30.98">
  <defs>
    <style>
      .a {
        fill: #1cbdc3;
      }

      .b {
        fill: #cafffe;
      }
    </style>
  </defs>
  <title>hAsset 1</title>
  <g>
    <path class="a" d="M29.52,18.24a6,6,0,0,1-4.48,2H20.27v4.63a6,6,0,0,1-4.79,5.84l-1.07.22a2.38,2.38,0,0,1-2.75-1.65L7.46,15.5H0V0H29.15L31,13.52A6,6,0,0,1,29.52,18.24ZM7.16,2.39H2.39V13.12H7.16ZM28.61,13.84,27.06,2.39H9.54V14.13l4.4,14.45L15,28.36a3.57,3.57,0,0,0,2.87-3.5v-7H25a3.57,3.57,0,0,0,3.57-3.57,3,3,0,0,0,0-.43Z"/>
    <path class="b" d="M7.16,2.39H2.39V13.12H7.16ZM28.61,13.84,27.06,2.39H9.54V14.13l4.4,14.45L15,28.36a3.57,3.57,0,0,0,2.87-3.5v-7H25a3.57,3.57,0,0,0,3.57-3.57,3,3,0,0,0,0-.43Z"/>
  </g>
</svg>
