<svg xmlns="http://www.w3.org/2000/svg" id="Layer_1" data-name="Layer 1" viewBox="0 0 364.87 406.34"><defs><style>.cls-1,.cls-4{fill:#262f6a}.cls-1{opacity:.1}.cls-2,.cls-6,.cls-7,.cls-8,.cls-9{fill:none}.cls-10,.cls-2,.cls-3,.cls-5,.cls-6,.cls-7,.cls-8,.cls-9{stroke:#262f6a;stroke-miterlimit:10}.cls-10,.cls-2,.cls-3{stroke-linecap:round}.cls-2,.cls-3,.cls-5,.cls-6{stroke-width:6px}.cls-10,.cls-3,.cls-5{fill:#fff}.cls-10,.cls-7,.cls-8{stroke-width:3px}.cls-8{stroke-dasharray:4}.cls-9{stroke-width:10px}</style></defs><title>golfing</title><circle cx="199.45" cy="166.72" r="160.26" class="cls-1"/><line x1="173.39" x2="172.93" y1="35.91" y2="121.7" class="cls-2"/><polygon points="17.52 83.39 115.3 103.23 115.3 60.7 17.52 83.39 17.52 83.39" class="cls-3"/><polygon points="172.19 92.18 90.99 86.42 90.99 40.43 172.19 35.82 172.19 92.18" class="cls-3"/><polygon points="88.09 89.46 115.57 103.06 115.57 88.32 88.09 89.46" class="cls-4"/><path d="M143.75,133.32A33.28,33.28,0,0,0,142,146.14L134.3,384c-.91,7.62,5.42,13.8,13.23,13.8H253.18c7.81,0,13.23-6.18,13.23-13.8L259.66,173.3c-.44-13.23-4.7-23.36-16.87-29.2l-81-21C153.4,120.87,146.52,125.27,143.75,133.32Z" class="cls-5"/><path d="M258.54,172.28h30.22l1.41,156.58c0,9.68-12.27,15.46-24.73,11.39" class="cls-6"/><line x1="164.49" x2="143.19" y1="123.79" y2="150.63" class="cls-7"/><line x1="173.71" x2="149.51" y1="127.74" y2="159.89" class="cls-7"/><line x1="186.04" x2="161.46" y1="131.17" y2="160.26" class="cls-7"/><line x1="197.88" x2="175.42" y1="132.51" y2="160.26" class="cls-7"/><line x1="210.13" x2="190.3" y1="135.48" y2="160.44" class="cls-7"/><line x1="223.57" x2="204.64" y1="137.59" y2="160" class="cls-7"/><line x1="233.67" x2="218.57" y1="140.88" y2="159.71" class="cls-7"/><line x1="245.29" x2="232.34" y1="144.16" y2="160.31" class="cls-7"/><line x1="253.55" x2="246.07" y1="151.33" y2="160.46" class="cls-7"/><path d="M225.47,339.92H172.68c-4.94,0-8.95-3.31-8.95-7.4l3.62-120.94c0-4.09,4-7.4,8.95-7.4l45.54,5.24c4.94,0,8.95,3.31,8.95,7.4l3.62,115.7C234.42,336.61,230.41,339.92,225.47,339.92Z" class="cls-6"/><polygon points="134.39 373.35 265.21 373.89 265.21 392.72 246.48 398.64 144.86 398.64 133.84 387.88 134.39 373.35" class="cls-4"/><line x1="134.94" x2="265.77" y1="361.24" y2="361.78" class="cls-6"/><path d="M170.53,207.38l7.08,10.49,31.55,5s7.61,4.3,6.8,4.43c4.41-.7-.09-4.28,1.13,113.48" class="cls-8"/><line x1="258.54" x2="143.69" y1="172.17" y2="172.17" class="cls-9"/><line x1="258.54" x2="141.8" y1="160.35" y2="160.35" class="cls-7"/><line x1="258.54" x2="138.34" y1="183.69" y2="183.92" class="cls-7"/><path d="M283.74,70.15a6.2,6.2,0,0,0,2.91-8.27S278.13,43,272.37,36.49c-2.74-3.11-4.52-4.88-8-5.54-24.61-4.59-42.63,1.22-55,6.55-3.26,1.4-6.05,3.56-5.62,7l.36,27c.43,3.45,4,4.69,7.19,5.49C211.27,77,251.81,85.6,283.74,70.15Z" class="cls-3"/><line x1="184.67" x2="184.67" y1="84.77" y2="126.72" class="cls-2"/><line x1="229.76" x2="229.76" y1="113.02" y2="138.64" class="cls-2"/><line x1="203.95" x2="202.97" y1="57.55" y2="133.72" class="cls-2"/><path d="M189.11,73.38l43.08-5.13c2.77-.33,4.09,1.46,5.63,4.3l8.93,18.69a4.78,4.78,0,0,1-2.27,6.44,5.14,5.14,0,0,1-1.49.41l-52.37,6.24A5,5,0,0,1,185,100l-.29-21.15A5,5,0,0,1,189.11,73.38Z" class="cls-3"/><line x1="232.93" x2="197.77" y1="90.16" y2="94.09" class="cls-10"/><line x1="229.63" x2="197" y1="84.34" y2="87.97" class="cls-10"/><line x1="226.56" x2="196.24" y1="78.47" y2="81.83" class="cls-10"/><ellipse cx="130.56" cy="63.63" class="cls-10" rx="10.23" ry="10.37"/><rect width="51.23" height="14.48" x="215.83" y="110.86" class="cls-3" rx="3.35" ry="3.35"/><polyline points="163.86 318.46 232.34 318.71 231.5 326.27 232.85 334.8 219 340.16 167.4 340.41" class="cls-4"/><path d="M213.35,58.86s-1.74-9.37,1.54-12.64c1.91-1.9,21.3-9.73,42.85-6.77" class="cls-10"/><ellipse cx="264.4" cy="41.78" class="cls-4" rx="1.67" ry="1.63"/></svg>