<svg xmlns="http://www.w3.org/2000/svg" id="Layer_1" data-name="Layer 1" viewBox="0 0 330.77 408.05"><defs><style>.cls-1,.cls-7{fill:#262f6a}.cls-1{opacity:.1}.cls-2,.cls-3{fill:#fff}.cls-2,.cls-3,.cls-4,.cls-5,.cls-8{stroke:#262f6a}.cls-2,.cls-3,.cls-4,.cls-5,.cls-6,.cls-8{stroke-miterlimit:10}.cls-2,.cls-8{stroke-width:6px}.cls-3,.cls-4,.cls-5,.cls-6{stroke-width:3px}.cls-4,.cls-5,.cls-6,.cls-8{fill:none}.cls-5{stroke-dasharray:3.92 3.92}.cls-6{stroke:#1f214f}</style></defs><title>mountaineering</title><circle cx="164.59" cy="166.07" r="160.26" class="cls-1"/><path d="M85.23,289.74H74.48a10.92,10.92,0,0,0-10.78,11l-6.29,85.82a10.92,10.92,0,0,0,10.78,11H93.31l142.56-.27" class="cls-2"/><line x1="66.78" x2="83.64" y1="291.29" y2="312.05" class="cls-3"/><line x1="63.58" x2="81.37" y1="306.07" y2="328.36" class="cls-3"/><line x1="63.66" x2="81.45" y1="324.83" y2="347.12" class="cls-3"/><line x1="60.06" x2="80.55" y1="339.11" y2="364.87" class="cls-3"/><line x1="61.55" x2="82.05" y1="359.67" y2="385.43" class="cls-3"/><line x1="62.65" x2="80.44" y1="361.37" y2="383.66" class="cls-3"/><line x1="59.04" x2="77.85" y1="375.65" y2="398.54" class="cls-3"/><path d="M244,289.47H254.7a10.92,10.92,0,0,1,10.78,11l6.29,85.82a10.92,10.92,0,0,1-10.78,11H235.87" class="cls-2"/><line x1="262.4" x2="245.54" y1="291.02" y2="311.78" class="cls-3"/><line x1="265.6" x2="247.81" y1="305.8" y2="328.09" class="cls-3"/><line x1="265.52" x2="247.72" y1="324.56" y2="346.85" class="cls-3"/><line x1="269.12" x2="248.62" y1="338.83" y2="364.59" class="cls-3"/><line x1="267.63" x2="247.13" y1="359.4" y2="385.16" class="cls-3"/><line x1="266.53" x2="248.74" y1="361.1" y2="383.39" class="cls-3"/><line x1="270.13" x2="251.33" y1="375.37" y2="398.27" class="cls-3"/><path d="M217.27,84a40.48,40.48,0,0,1,22.62,35l8.45,262.65a15.6,15.6,0,0,1-15.6,15.6H95.91a15.6,15.6,0,0,1-15.6-15.6L88.77,118.3a40.5,40.5,0,0,1,21.8-34.6C124.2,76.59,143,73,162.55,73.22,183.47,73.47,203.11,77,217.27,84Z" class="cls-2"/><path d="M87.19,164.93C87.63,174.21,108,176,108,176l17.9-8.31c25.44-9.81,48.12-9.88,73.61-.21L220.15,176s21.26-2.83,21.26-12" class="cls-4"/><rect width="22.77" height="8.64" x="210" y="177.08" class="cls-4" rx="4.32" ry="4.32"/><rect width="22.77" height="8.64" x="209.69" y="219.18" class="cls-4" rx="4.32" ry="4.32"/><rect width="40.71" height="19.24" x="142.02" y="110.44" class="cls-5" rx="5.84" ry="5.84"/><rect width="55.8" height="31.83" x="134.86" y="103.98" class="cls-4" rx="8.79" ry="8.79"/><polygon points="210.88 201.91 215.81 185.82 226.65 185.82 231.58 201.91 226.77 218.57 215.93 218.57 210.88 201.91" class="cls-4"/><line x1="210.88" x2="230.92" y1="201.91" y2="201.73" class="cls-4"/><rect width="22.77" height="8.64" x="94.76" y="177.85" class="cls-4" rx="4.32" ry="4.32"/><rect width="22.77" height="8.64" x="94.44" y="219.95" class="cls-4" rx="4.32" ry="4.32"/><polygon points="95.64 202.68 100.56 186.59 111.41 186.59 116.34 202.68 111.53 219.34 100.68 219.34 95.64 202.68" class="cls-4"/><line x1="95.63" x2="115.68" y1="202.68" y2="202.5" class="cls-4"/><rect width="93.22" height="67.77" x="117.71" y="290.53" class="cls-4" rx="8.53" ry="8.53"/><path d="M210.83,307.44c0,6.51-5.08,11.83-11.3,11.83H129.1c-6.21,0-11.3-5.32-11.3-11.83" class="cls-6"/><path d="M212,152.6c0,4.22,8.81,14.38,8.81,14.38s7.42-5.56,7.42-8.35" class="cls-4"/><path d="M116.54,152.6c0,4.22-8.81,14.38-8.81,14.38s-7.42-5.56-7.42-8.35" class="cls-4"/><rect width="12.04" height="134.67" x="97.08" y="228.04" class="cls-7" transform="translate(10.37 -3.42) rotate(2)"/><path d="M240.23,395.07H85.78a5.3,5.3,0,0,1-5.3-5.3v-12.3c0-2.93-.37-5.3,2.55-5.3H245.72c2.93,0,1.64,2.37,1.64,5.3l-1.83,12.3A5.3,5.3,0,0,1,240.23,395.07Z" class="cls-7"/><polygon points="190.43 277.4 136.62 277.4 141.12 180.22 141.2 178.6 185.86 178.6 190.43 277.4" class="cls-4"/><polyline points="142.72 180.19 184.48 211.6 139.5 240.64 189.52 276.8" class="cls-4"/><polyline points="184.48 179.59 142.72 211.01 187.69 240.05 137.67 276.21" class="cls-4"/><line x1="127.75" x2="127.34" y1="326.61" y2="349.37" class="cls-4"/><line x1="200.67" x2="200.25" y1="326.07" y2="348.83" class="cls-4"/><rect width="18.38" height="18.38" x="155.13" y="328.67" class="cls-4" rx="4.61" ry="4.61" transform="translate(-190.78 215.15) rotate(-45)"/><rect width="22.77" height="8.64" x="89.51" y="362.23" class="cls-4" rx="4.32" ry="4.32"/><rect width="12.04" height="134.67" x="217.8" y="228.26" class="cls-7" transform="translate(457.83 583.2) rotate(178)"/><rect width="22.77" height="8.64" x="214.65" y="362.45" class="cls-4" rx="4.32" ry="4.32" transform="translate(452.06 733.53) rotate(180)"/><path d="M138.73,75.87V65.62a11,11,0,0,1,11-11h24.75a11,11,0,0,1,11,11V75.87" class="cls-8"/></svg>