<svg xmlns="http://www.w3.org/2000/svg" xmlns:xlink="http://www.w3.org/1999/xlink" id="Layer_1" data-name="Layer 1" viewBox="0 0 99.85 99.15"><defs><style>.cls-1,.cls-2{fill:none}.cls-2{clip-rule:evenodd}.cls-3{clip-path:url(#clip-path)}.cls-4{clip-path:url(#clip-path-2)}.cls-5{isolation:isolate}.cls-6{clip-path:url(#clip-path-3)}.cls-7{fill:#ececec}.cls-8{clip-path:url(#clip-path-5)}.cls-9{fill:#1d3749}.cls-10{clip-path:url(#clip-path-7)}.cls-11{fill:#fff}.cls-12{clip-path:url(#clip-path-9)}.cls-13{clip-path:url(#clip-path-11)}.cls-14{clip-path:url(#clip-path-13)}.cls-15{clip-path:url(#clip-path-15)}.cls-16{clip-path:url(#clip-path-17)}.cls-17{clip-path:url(#clip-path-19)}.cls-18{fill:#f8f8fc}.cls-19{clip-path:url(#clip-path-21)}.cls-20{clip-path:url(#clip-path-23)}.cls-21{clip-path:url(#clip-path-25)}.cls-22{clip-path:url(#clip-path-27)}.cls-23{clip-path:url(#clip-path-29)}.cls-24{clip-path:url(#clip-path-31)}.cls-25{clip-path:url(#clip-path-33)}.cls-26{clip-path:url(#clip-path-35)}.cls-27{clip-path:url(#clip-path-37)}.cls-28{clip-path:url(#clip-path-39)}.cls-29{clip-path:url(#clip-path-41)}.cls-30{clip-path:url(#clip-path-43)}.cls-31{clip-path:url(#clip-path-45)}</style><clipPath id="clip-path" transform="translate(3.83 3.75)"><circle cx="48.67" cy="48.75" r="47.5" class="cls-1"/></clipPath><clipPath id="clip-path-2" transform="translate(3.83 3.75)"><rect width="1280" height="1421" x="-443.83" y="-907.75" class="cls-1"/></clipPath><clipPath id="clip-path-3" transform="translate(3.83 3.75)"><rect width="95" height="95" x="1.17" y="1.25" class="cls-1"/></clipPath><clipPath id="clip-path-5" transform="translate(3.83 3.75)"><polygon points="51.29 60.06 53.81 60.57 55.55 51.96 53.03 51.45 51.29 60.06" class="cls-2"/></clipPath><clipPath id="clip-path-7" transform="translate(3.83 3.75)"><path d="M60.08,58.14a5.54,5.54,0,1,1-5.54-5.56,5.55,5.55,0,0,1,5.54,5.56" class="cls-2"/></clipPath><clipPath id="clip-path-9" transform="translate(3.83 3.75)"><path d="M54.54,64.38a6.25,6.25,0,1,1,6.22-6.25,6.24,6.24,0,0,1-6.22,6.25m0-11.12a4.88,4.88,0,1,0,4.86,4.88,4.87,4.87,0,0,0-4.86-4.88" class="cls-2"/></clipPath><clipPath id="clip-path-11" transform="translate(3.83 3.75)"><path d="M28.67,58.66a5.54,5.54,0,1,1-5.54-5.56,5.55,5.55,0,0,1,5.54,5.56" class="cls-2"/></clipPath><clipPath id="clip-path-13" transform="translate(3.83 3.75)"><path d="M22.61,65.6a6.25,6.25,0,1,1,6.22-6.25,6.24,6.24,0,0,1-6.22,6.25m0-11.12a4.88,4.88,0,1,0,4.86,4.88,4.87,4.87,0,0,0-4.86-4.88" class="cls-2"/></clipPath><clipPath id="clip-path-15" transform="translate(3.83 3.75)"><path d="M79.51,58.66A5.54,5.54,0,1,1,74,53.1a5.55,5.55,0,0,1,5.54,5.56" class="cls-2"/></clipPath><clipPath id="clip-path-17" transform="translate(3.83 3.75)"><path d="M73.44,65.6a6.25,6.25,0,1,1,6.22-6.25,6.24,6.24,0,0,1-6.22,6.25m0-11.12a4.88,4.88,0,1,0,4.86,4.88,4.87,4.87,0,0,0-4.86-4.88" class="cls-2"/></clipPath><clipPath id="clip-path-19" transform="translate(3.83 3.75)"><path d="M18.44,113.8c0-15.73,7.58-28.47,18.4-28.47H59.91c10.82,0,19.6,12.75,19.6,28.47Z" class="cls-2"/></clipPath><clipPath id="clip-path-21" transform="translate(3.83 3.75)"><path d="M79.51,113H18.44v-1c0-15.17,8.74-27.51,19.47-27.51H60c10.74,0,19.47,12.34,19.47,27.51Zm-59.7-1.91H78.14C77.78,97.45,69.8,86.48,60,86.48H37.92C28.15,86.48,20.16,97.45,19.81,111.13Z" class="cls-2"/></clipPath><clipPath id="clip-path-23" transform="translate(3.83 3.75)"><path d="M47.87,89.61h0a4.77,4.77,0,0,1-4.76-4.78V78.37h9.52v6.46a4.77,4.77,0,0,1-4.76,4.78" class="cls-2"/></clipPath><clipPath id="clip-path-25" transform="translate(3.83 3.75)"><path d="M48.45,89.92A5.46,5.46,0,0,1,43,84.46V77.31H53.89v7.15A5.46,5.46,0,0,1,48.45,89.92ZM44.38,78.68v5.78a4.08,4.08,0,1,0,8.15,0V78.68Z" class="cls-2"/></clipPath><clipPath id="clip-path-27" transform="translate(3.83 3.75)"><path d="M76,52.17a26.81,26.81,0,1,1-26.81-26.9A26.85,26.85,0,0,1,76,52.17" class="cls-2"/></clipPath><clipPath id="clip-path-29" transform="translate(3.83 3.75)"><path d="M49.08,79.28A27.59,27.59,0,1,1,76.57,51.69,27.57,27.57,0,0,1,49.08,79.28m0-53.81A26.22,26.22,0,1,0,75.2,51.69,26.2,26.2,0,0,0,49.08,25.47" class="cls-2"/></clipPath><clipPath id="clip-path-31" transform="translate(3.83 3.75)"><path d="M35.28,46.21a23.61,23.61,0,0,0,5-9.37c0,.17.77,1,.88,1.13q.57.7,1.18,1.38a32.21,32.21,0,0,0,10.57,8c4.43,2,9.24,2.77,14,3.69,2.51.48,5,1,7.51,1.55,0,0,1.6.49,1.6.52S75.77,33,57.64,26.49C48.26,23.13,39,27.16,37.14,28c-17.71,7.67-14.58,24.83-14.6,25.75C24.74,53.15,30.89,51.25,35.28,46.21Z" class="cls-2"/></clipPath><clipPath id="clip-path-33" transform="translate(3.83 3.75)"><path d="M41.92,67.28c.13.3,1.75,4.1,5.63,4.85a8.1,8.1,0,0,0,8.68-4.85" class="cls-2"/></clipPath><clipPath id="clip-path-35" transform="translate(3.83 3.75)"><path d="M48.87,72.71a7.32,7.32,0,0,1-1.39-.13c-4.08-.79-5.79-4.68-6-5.12a.46.46,0,1,1,.84-.35c.07.16,1.62,3.86,5.3,4.57a7.69,7.69,0,0,0,8.18-4.59.45.45,0,0,1,.6-.22.46.46,0,0,1,.22.61,8.8,8.8,0,0,1-7.78,5.24" class="cls-2"/></clipPath><clipPath id="clip-path-37" transform="translate(3.83 3.75)"><polyline points="67.79 52.31 66.9 59.34 72.04 61.5" class="cls-2"/></clipPath><clipPath id="clip-path-39" transform="translate(3.83 3.75)"><path d="M49.86,63.21a.47.47,0,0,1-.18,0l-5.46-2.29.93-7.38a.46.46,0,1,1,.9.11l-.85,6.7,4.82,2a.46.46,0,0,1-.18.88" class="cls-2"/></clipPath><clipPath id="clip-path-41" transform="translate(3.83 3.75)"><path d="M37.23,55.06a2,2,0,1,1-2-2,2,2,0,0,1,2,2" class="cls-2"/></clipPath><clipPath id="clip-path-43" transform="translate(3.83 3.75)"><path d="M60.23,55.06a2,2,0,1,1-2-2,2,2,0,0,1,2,2" class="cls-2"/></clipPath><clipPath id="clip-path-45" transform="translate(3.83 3.75)"><ellipse cx="51.48" cy="25.31" class="cls-1" rx="15.74" ry="12.15"/></clipPath></defs><title>joanna</title><g class="cls-3"><g class="cls-4"><g class="cls-5"><g class="cls-6"><g class="cls-6"><rect width="105" height="105" class="cls-7"/></g><g class="cls-8"><g class="cls-6"><rect width="14.26" height="19.12" x="50.12" y="50.19" class="cls-9"/></g></g><g class="cls-10"><g class="cls-6"><rect width="21.08" height="21.12" x="47.83" y="51.32" class="cls-11"/></g></g><g class="cls-12"><g class="cls-6"><rect width="22.45" height="22.49" x="47.15" y="50.64" class="cls-9"/></g></g><g class="cls-13"><g class="cls-6"><rect width="21.08" height="21.12" x="16.42" y="51.85" class="cls-11"/></g></g><g class="cls-14"><g class="cls-6"><rect width="22.45" height="22.49" x="15.21" y="51.85" class="cls-9"/></g></g><g class="cls-15"><g class="cls-6"><rect width="21.08" height="21.12" x="67.26" y="51.85" class="cls-11"/></g></g><g class="cls-16"><g class="cls-6"><rect width="22.45" height="22.49" x="66.05" y="51.85" class="cls-9"/></g></g><g class="cls-17"><g class="cls-6"><rect width="71.06" height="38.47" x="17.27" y="84.08" class="cls-18"/></g></g><g class="cls-19"><g class="cls-6"><rect width="71.06" height="38.47" x="17.27" y="83.32" class="cls-9"/></g></g><g class="cls-20"><g class="cls-6"><rect width="19.52" height="21.24" x="41.94" y="77.12" class="cls-18"/></g></g><g class="cls-21"><g class="cls-6"><rect width="20.88" height="22.61" x="41.84" y="76.06" class="cls-9"/></g></g><g class="cls-22"><g class="cls-6"><rect width="63.61" height="63.81" x="21.26" y="24.01" class="cls-18"/></g></g><g class="cls-23"><g class="cls-6"><rect width="64.98" height="65.18" x="20.42" y="22.85" class="cls-9"/></g></g><g class="cls-24"><g class="cls-6"><rect width="63.61" height="38.56" x="21.17" y="23.92" class="cls-9"/></g></g><g class="cls-25"><g class="cls-6"><rect width="24.31" height="14.97" x="40.75" y="66.03" class="cls-18"/></g></g><g class="cls-26"><g class="cls-6"><rect width="25.22" height="15.89" x="40.3" y="65.57" class="cls-9"/></g></g><g class="cls-27"><g class="cls-6"><rect width="15.14" height="19.2" x="65.73" y="51.05" class="cls-18"/></g></g><g class="cls-28"><g class="cls-6"><rect width="16.09" height="20.11" x="43.05" y="51.85" class="cls-9"/></g></g><g class="cls-29"><g class="cls-6"><rect width="13.9" height="13.91" x="32.16" y="51.85" class="cls-9"/></g></g><g class="cls-30"><g class="cls-6"><rect width="13.9" height="13.91" x="55.15" y="51.85" class="cls-9"/></g></g><g class="cls-31"><g class="cls-6"><rect width="41.47" height="34.3" x="34.58" y="11.91" class="cls-9"/></g></g></g></g></g></g></svg>