<svg id="Layer_1" data-name="Layer 1" xmlns="http://www.w3.org/2000/svg" xmlns:xlink="http://www.w3.org/1999/xlink" viewBox="0 0 99.85 99.15"><defs><style>.cls-1,.cls-2{fill:none;}.cls-2{clip-rule:evenodd;}.cls-3{clip-path:url(#clip-path);}.cls-4{clip-path:url(#clip-path-2);}.cls-5{clip-path:url(#clip-path-3);}.cls-6{isolation:isolate;}.cls-7{clip-path:url(#clip-path-4);}.cls-8{fill:#ececec;}.cls-9{clip-path:url(#clip-path-6);}.cls-10{fill:#1d3749;}.cls-11{clip-path:url(#clip-path-8);}.cls-12{fill:#fff;}.cls-13{clip-path:url(#clip-path-10);}.cls-14{clip-path:url(#clip-path-12);}.cls-15{clip-path:url(#clip-path-14);}.cls-16{clip-path:url(#clip-path-16);}.cls-17{clip-path:url(#clip-path-17);}.cls-18{clip-path:url(#clip-path-19);}.cls-19{fill:#f8f8fc;}.cls-20{clip-path:url(#clip-path-21);}.cls-21{clip-path:url(#clip-path-23);}.cls-22{clip-path:url(#clip-path-24);}.cls-23{clip-path:url(#clip-path-26);}.cls-24{clip-path:url(#clip-path-28);}.cls-25{clip-path:url(#clip-path-30);}.cls-26{clip-path:url(#clip-path-32);}.cls-27{clip-path:url(#clip-path-34);}.cls-28{clip-path:url(#clip-path-36);}.cls-29{clip-path:url(#clip-path-38);}.cls-30{clip-path:url(#clip-path-40);}.cls-31{clip-path:url(#clip-path-42);}.cls-32{clip-path:url(#clip-path-44);}.cls-33{clip-path:url(#clip-path-46);}.cls-34{clip-path:url(#clip-path-48);}.cls-35{clip-path:url(#clip-path-49);}.cls-36{clip-path:url(#clip-path-51);}.cls-37{clip-path:url(#clip-path-53);}.cls-38{clip-path:url(#clip-path-55);}</style><clipPath id="clip-path"><circle class="cls-1" cx="-102.5" cy="314.5" r="47.5"/></clipPath><clipPath id="clip-path-2"><circle class="cls-1" cx="50.1" cy="49.68" r="47.5"/></clipPath><clipPath id="clip-path-3"><rect class="cls-1" x="-746.4" y="-906.82" width="1280" height="1479"/></clipPath><clipPath id="clip-path-4"><rect class="cls-1" x="2.6" y="2.18" width="95" height="95"/></clipPath><clipPath id="clip-path-6"><path class="cls-2" d="M79.38,43.79A21.47,21.47,0,1,1,57.91,22.16,21.55,21.55,0,0,1,79.38,43.79"/></clipPath><clipPath id="clip-path-8"><path class="cls-2" d="M32.38,60.71a5.59,5.59,0,1,1-5.59-5.63,5.61,5.61,0,0,1,5.59,5.63"/></clipPath><clipPath id="clip-path-10"><path class="cls-2" d="M26.79,67a6.32,6.32,0,1,1,6.28-6.32A6.31,6.31,0,0,1,26.79,67m0-11.26a4.94,4.94,0,1,0,4.9,4.94,4.92,4.92,0,0,0-4.9-4.94"/></clipPath><clipPath id="clip-path-12"><path class="cls-2" d="M84.11,60.71a5.59,5.59,0,1,1-5.59-5.63,5.61,5.61,0,0,1,5.59,5.63"/></clipPath><clipPath id="clip-path-14"><rect class="cls-1" x="72.25" y="54.39" width="12.55" height="12.65"/></clipPath><clipPath id="clip-path-16"><rect class="cls-1" x="71.6" y="54.18" width="14" height="13"/></clipPath><clipPath id="clip-path-17"><path class="cls-2" d="M78.52,67a6.32,6.32,0,1,1,6.28-6.32A6.31,6.31,0,0,1,78.52,67m0-11.26a4.94,4.94,0,1,0,4.9,4.94,4.92,4.92,0,0,0-4.9-4.94"/></clipPath><clipPath id="clip-path-19"><path class="cls-2" d="M73,99.87H32.46A12.81,12.81,0,0,1,45.23,87h15A12.81,12.81,0,0,1,73,99.87"/></clipPath><clipPath id="clip-path-21"><rect class="cls-1" x="32" y="86.55" width="41.47" height="13.78"/></clipPath><clipPath id="clip-path-23"><rect class="cls-1" x="31.6" y="86.18" width="42" height="11"/></clipPath><clipPath id="clip-path-24"><path class="cls-2" d="M73.47,100.34H32v-.46A13.29,13.29,0,0,1,45.22,86.55h15A13.29,13.29,0,0,1,73.47,99.87Zm-40.54-.93H72.54a12.36,12.36,0,0,0-12.3-11.93h-15A12.36,12.36,0,0,0,32.93,99.41Z"/></clipPath><clipPath id="clip-path-26"><path class="cls-2" d="M52.73,91.34h0a4.82,4.82,0,0,1-4.8-4.83V80h9.6v6.54a4.82,4.82,0,0,1-4.8,4.83"/></clipPath><clipPath id="clip-path-28"><path class="cls-2" d="M52.74,92a5.51,5.51,0,0,1-5.49-5.53V79.27h11v7.24A5.51,5.51,0,0,1,52.74,92ZM48.63,80.66v5.85a4.11,4.11,0,1,0,8.22,0V80.66Z"/></clipPath><clipPath id="clip-path-30"><path class="cls-2" d="M79.77,54.19A27,27,0,1,1,52.73,27a27.13,27.13,0,0,1,27,27.23"/></clipPath><clipPath id="clip-path-32"><path class="cls-2" d="M52.73,82.11A27.93,27.93,0,1,1,80.46,54.19,27.86,27.86,0,0,1,52.73,82.11m0-54.47A26.54,26.54,0,1,0,79.08,54.19,26.47,26.47,0,0,0,52.73,27.65"/></clipPath><clipPath id="clip-path-34"><path class="cls-2" d="M45.52,70c.13.31,1.77,4.15,5.68,4.91A8.17,8.17,0,0,0,60,70"/></clipPath><clipPath id="clip-path-36"><path class="cls-2" d="M52.52,75.47a7.22,7.22,0,0,1-1.4-.14c-4.12-.8-5.84-4.74-6-5.18a.46.46,0,1,1,.85-.35c.06.16,1.64,3.91,5.34,4.63a7.74,7.74,0,0,0,8.25-4.65.46.46,0,0,1,.61-.23.46.46,0,0,1,.22.61,8.87,8.87,0,0,1-7.85,5.3"/></clipPath><clipPath id="clip-path-38"><polyline class="cls-2" points="49.63 54.81 48.74 61.93 53.92 64.12"/></clipPath><clipPath id="clip-path-40"><path class="cls-2" d="M53.92,64.58a.47.47,0,0,1-.18,0l-5.51-2.32.94-7.48a.47.47,0,0,1,.51-.4.46.46,0,0,1,.4.52l-.86,6.78,4.86,2a.46.46,0,0,1,.25.61.46.46,0,0,1-.42.28"/></clipPath><clipPath id="clip-path-42"><path class="cls-2" d="M41.4,56.85a2,2,0,1,1-2-2,2,2,0,0,1,2,2"/></clipPath><clipPath id="clip-path-44"><path class="cls-2" d="M65,56.85a2,2,0,1,1-2-2,2,2,0,0,1,2,2"/></clipPath><clipPath id="clip-path-46"><rect class="cls-1" x="20.14" y="21.02" width="42.71" height="22.52"/></clipPath><clipPath id="clip-path-48"><rect class="cls-1" x="19.6" y="20.18" width="44" height="24"/></clipPath><clipPath id="clip-path-49"><path class="cls-2" d="M57.88,24c-10.16-5-31.82-2.31-35.79-1.86-6.44,18.26,5,21,5.88,21.38.61.27,1.83-1.94,4.52-4.7,1.38-1.42,6.74-7.44,14.5-8.94,8.38-1.62,23.81.46,10.89-5.88"/></clipPath><clipPath id="clip-path-51"><path class="cls-2" d="M65,34.2c0,3.45-5.36,6.24-12,6.24s-12-2.79-12-6.24S46.37,27,53,27s12,3.74,12,7.19"/></clipPath><clipPath id="clip-path-53"><path class="cls-2" d="M78.93,47.7c-3.39-5.27-9.23-5.34-15.34-12.19a30.11,30.11,0,0,1-5-7.65,35.75,35.75,0,0,1,10.83,5.08c5.23,3.88,11,17.16,9.46,14.76"/></clipPath><clipPath id="clip-path-55"><path class="cls-2" d="M26.28,47.7c3.39-5.27,9.23-5.34,15.34-12.19a30.15,30.15,0,0,0,5-7.65,35.75,35.75,0,0,0-10.83,5.08c-5.23,3.88-11,17.16-9.46,14.76"/></clipPath></defs><title>alexander</title><g class="cls-4"><g class="cls-5"><g class="cls-6"><g class="cls-7"><g class="cls-7"><rect class="cls-8" x="-2.4" y="-2.82" width="105" height="105"/></g><g class="cls-9"><g class="cls-7"><rect class="cls-10" x="31.44" y="17.16" width="52.93" height="53.25"/></g></g><g class="cls-11"><g class="cls-7"><rect class="cls-12" x="16.2" y="50.08" width="21.17" height="21.26"/></g></g><g class="cls-13"><g class="cls-7"><rect class="cls-10" x="15.51" y="49.39" width="22.55" height="22.65"/></g></g><g class="cls-14"><g class="cls-7"><rect class="cls-12" x="67.94" y="50.08" width="21.18" height="21.26"/></g></g><g class="cls-15"><g class="cls-7"><g class="cls-6"><g class="cls-16"><g class="cls-17"><g class="cls-16"><rect class="cls-10" x="67.25" y="49.39" width="22.55" height="22.65"/></g></g></g></g></g></g><g class="cls-18"><g class="cls-7"><rect class="cls-19" x="27.46" y="82.01" width="50.55" height="22.86"/></g></g><g class="cls-20"><g class="cls-7"><g class="cls-6"><g class="cls-21"><g class="cls-22"><g class="cls-21"><rect class="cls-10" x="27" y="81.55" width="51.47" height="23.78"/></g></g></g></g></g></g><g class="cls-23"><g class="cls-7"><rect class="cls-19" x="42.94" y="74.97" width="19.6" height="21.38"/></g></g><g class="cls-24"><g class="cls-7"><rect class="cls-10" x="42.25" y="74.27" width="20.97" height="22.76"/></g></g><g class="cls-25"><g class="cls-7"><rect class="cls-19" x="20.7" y="21.95" width="64.06" height="64.47"/></g></g><g class="cls-26"><g class="cls-7"><rect class="cls-10" x="20.01" y="21.26" width="65.44" height="65.85"/></g></g><g class="cls-27"><g class="cls-7"><rect class="cls-19" x="40.52" y="64.97" width="24.43" height="15.03"/></g></g><g class="cls-28"><g class="cls-7"><rect class="cls-10" x="40.06" y="64.51" width="25.35" height="15.96"/></g></g><g class="cls-29"><g class="cls-7"><rect class="cls-19" x="43.74" y="49.81" width="15.18" height="19.31"/></g></g><g class="cls-30"><g class="cls-7"><rect class="cls-10" x="43.24" y="49.35" width="16.14" height="20.23"/></g></g><g class="cls-31"><g class="cls-7"><rect class="cls-10" x="32.47" y="49.87" width="13.93" height="13.96"/></g></g><g class="cls-32"><g class="cls-7"><rect class="cls-10" x="56.08" y="49.87" width="13.93" height="13.96"/></g></g><g class="cls-33"><g class="cls-7"><g class="cls-6"><g class="cls-34"><g class="cls-35"><g class="cls-34"><rect class="cls-10" x="15.14" y="16.02" width="52.71" height="32.52"/></g></g></g></g></g></g><g class="cls-36"><g class="cls-7"><rect class="cls-10" x="36.07" y="22.01" width="33.93" height="23.43"/></g></g><g class="cls-37"><g class="cls-7"><rect class="cls-10" x="53.63" y="22.86" width="30.55" height="30.13"/></g></g><g class="cls-38"><g class="cls-7"><rect class="cls-10" x="21.03" y="22.86" width="30.55" height="30.13"/></g></g></g></g></g></g></svg>