<?xml version="1.0" encoding="UTF-8"?>
<svg width="21px" height="24px" viewBox="0 0 21 24" version="1.1" xmlns="http://www.w3.org/2000/svg" xmlns:xlink="http://www.w3.org/1999/xlink">
    <!-- Generator: Sketch 50.2 (55047) - http://www.bohemiancoding.com/sketch -->
    <title>Group 3</title>
    <desc>Created with Sketch.</desc>
    <defs></defs>
    <g id="Page-1" stroke="none" stroke-width="1" fill="none" fill-rule="evenodd">
        <g id="Desktop-HD" transform="translate(-1197.000000, -23.000000)" fill="#FFFFFF" fill-rule="nonzero">
            <g id="world-globe_32" transform="translate(1196.000000, 23.000000)">
                <g id="Group-3" transform="translate(0.832031, 0.000000)">
                    <path d="M2.86,14.34 C4.5,15.98 6.6496,16.8 8.8,16.8 C10.8248,16.8 12.844,16.0624 14.4432,14.608 L14.4576,14.6224 L15.0232,14.0568 L15.0088,14.0416 C18.0072,10.7464 17.9248,5.644 14.74,2.46 C13.1,0.82 10.9504,0 8.8,0 C6.7752,0 4.756,0.7376 3.1568,2.192 L3.1432,2.1776 L2.5776,2.7432 L2.592,2.7584 C-0.4072,6.0536 -0.324,11.1552 2.86,14.34 Z M8.8,1.6 C10.6168,1.6 12.324,2.308 13.6088,3.5912 C16.164,6.1472 16.2488,10.244 13.8768,12.9104 L4.288,3.3216 C5.5336,2.2136 7.1168,1.6 8.8,1.6 Z M13.312,13.4784 C12.0664,14.5864 10.4832,15.2 8.8,15.2 C6.9832,15.2 5.276,14.492 3.9912,13.2088 C1.436,10.6536 1.3512,6.5568 3.7232,3.8896 L13.312,13.4784 Z" id="Shape"></path>
                    <path d="M17.0024,0.1976 L15.8712,1.3288 C17.76,3.2176 18.8,5.728 18.8,8.4 C18.8,11.072 17.76,13.5832 15.8712,15.4712 C13.9832,17.3592 11.472,18.4 8.8,18.4 C6.128,18.4 3.6168,17.3592 1.7288,15.4712 L0.5976,16.6024 C2.7872,18.7936 5.7008,20 8.8,20 C11.8992,20 14.8128,18.7936 17.0024,16.6024 C19.1928,14.412 20.4,11.4984 20.4,8.4 C20.4,5.3016 19.1928,2.388 17.0024,0.1976 Z" id="Shape"></path>
                    <rect id="Rectangle-path" x="4.8" y="21.6" width="8" height="2.4"></rect>
                </g>
            </g>
        </g>
    </g>
</svg>