<?xml version="1.0" encoding="UTF-8"?>
<svg width="209px" height="35px" viewBox="0 0 209 35" version="1.1" xmlns="http://www.w3.org/2000/svg" xmlns:xlink="http://www.w3.org/1999/xlink">
    <!-- Generator: Sketch 50.2 (55047) - http://www.bohemiancoding.com/sketch -->
    <title>Group</title>
    <desc>Created with Sketch.</desc>
    <defs>
        <polygon id="path-1" points="0.594621456 0.0324713923 30.7239045 0.0324713923 30.7239045 28.9619621 0.594621456 28.9619621"></polygon>
        <polygon id="path-3" points="0.0988792556 0.000343927846 34.4916638 0.000343927846 34.4916638 34.3927846 0.0988792556 34.3927846"></polygon>
    </defs>
    <g id="Page-1" stroke="none" stroke-width="1" fill="none" fill-rule="evenodd">
        <g id="Desktop-HD" transform="translate(-30.000000, -17.000000)">
            <g id="Group" transform="translate(30.000000, 17.500000)">
                <path d="M11.1444659,14.0736994 L11.1444659,20.3159898 C11.1444659,21.3838858 11.5227866,22.2041537 12.2794278,22.7750739 C13.0360691,23.3494334 14.0265813,23.6348935 15.2509644,23.6348935 C16.4753475,23.6348935 17.3609618,23.4543314 17.9129659,23.0880482 C18.4632505,22.7252044 18.9223942,22.1903966 19.2955559,21.4887838 C19.666998,20.7871709 20.1536559,20.4346449 20.7606885,20.4346449 L29.6735786,20.4346449 C29.9229263,20.4346449 30.1361616,20.5223465 30.3132844,20.6994693 C30.4938465,20.8748725 30.5832678,21.0863882 30.5832678,21.3271377 C30.5832678,23.8464091 29.3726418,26.1472864 26.9496701,28.2297695 C25.7390441,29.2615531 24.1311814,30.0938584 22.1226428,30.7284053 C20.1141042,31.3629522 17.7478806,31.6828051 15.023972,31.6828051 C12.3000635,31.6828051 9.81690446,31.2718113 7.57449491,30.4567023 C5.33036571,29.6364344 3.50926777,28.2968355 2.10604216,26.4327465 C0.702816552,24.5686576 0.00120374746,22.2815374 0.00120374746,19.571386 L0.00120374746,14.8234621 C0.00120374746,12.111591 0.702816552,9.81759231 2.10604216,7.94146592 C4.74740802,4.45403756 9.16344155,2.71032339 15.3541428,2.71032339 C17.8562178,2.71032339 20.1141042,3.02845664 22.1226428,3.66472316 C24.1311814,4.29927003 25.7390441,5.13329506 26.9496701,6.15991968 C29.3726418,8.24412242 30.5832678,10.5467193 30.5832678,13.0642712 C30.5832678,13.3084599 30.4938465,13.5182559 30.3132844,13.6936591 C30.1361616,13.8690623 29.9229263,13.9584836 29.6735786,13.9584836 L20.7606885,13.9584836 C20.1536559,13.9584836 19.666998,13.6076772 19.2955559,12.9026251 C18.9223942,12.2010123 18.4632505,11.6696438 17.9129659,11.3050802 C17.3609618,10.9405167 16.4753475,10.758235 15.2509644,10.758235 C14.0265813,10.758235 13.0360691,11.0436951 12.2794278,11.6163349 C11.5227866,12.1889748 11.1444659,13.0075231 11.1444659,14.0736994" id="Fill-1" fill="#FFFFFF"></path>
                <path d="M53.0740853,19.3022625 L50.1455397,10.7161038 L47.2152745,19.3022625 L53.0740853,19.3022625 Z M42.2197225,31.6423936 L34.419439,31.6423936 C34.1735306,31.6423936 33.9602953,31.5512527 33.7797332,31.3741299 C33.6008907,31.1952874 33.5114694,31.0198842 33.5114694,30.8565184 C33.5114694,30.6914331 33.5252266,30.5676191 33.5527408,30.486796 L42.5516129,4.11268918 C42.7975213,3.20471966 43.418311,2.75073491 44.4071036,2.75073491 L55.8822562,2.75073491 C56.8710487,2.75073491 57.4901188,3.20471966 57.7394665,4.11268918 L66.7348993,30.486796 C66.7624136,30.5676191 66.7778903,30.6914331 66.7778903,30.8565184 C66.7778903,31.0198842 66.6867494,31.1952874 66.5079069,31.3741299 C66.3290645,31.5512527 66.1158292,31.6423936 65.8682012,31.6423936 L58.0679176,31.6423936 C57.189182,31.6423936 56.5683922,31.1746517 56.2107073,30.2374483 L55.1806434,27.3501741 L45.1087164,27.3501741 L44.0786525,30.2374483 C43.7209675,31.1746517 43.1001778,31.6423936 42.2197225,31.6423936 Z" id="Fill-3" fill="#FFFFFF"></path>
                <path d="M82.4608281,10.4278923 L82.4608281,14.8026545 L87.6197458,14.8026545 C88.2250588,14.8026545 88.691081,14.6031763 89.0229714,14.20422 C89.3531421,13.8052637 89.5182275,13.3031291 89.5182275,12.6978161 C89.5182275,12.092503 89.3600207,11.5628542 89.0436071,11.1088694 C88.7289131,10.6548847 88.2508534,10.4278923 87.6197458,10.4278923 L82.4608281,10.4278923 Z M101.486917,30.3619502 C101.541945,30.4737268 101.56774,30.625055 101.56774,30.815935 C101.56774,31.0068149 101.481758,31.1959752 101.299476,31.3730981 C101.122353,31.5519405 100.910837,31.6413618 100.66149,31.6413618 L91.2946148,31.6413618 C90.4674683,31.6413618 89.8896696,31.2957143 89.5612185,30.6112979 L85.9276208,22.4395723 L82.4608281,22.4395723 L82.4608281,30.5270356 C82.4608281,30.8296921 82.3507712,31.0910772 82.132377,31.3094714 C81.9105435,31.5313049 81.6474387,31.6413618 81.3465019,31.6413618 L72.4318921,31.6413618 C72.1292356,31.6413618 71.8678505,31.5313049 71.6494563,31.3094714 C71.4276228,31.0910772 71.3175659,30.8296921 71.3175659,30.5270356 L71.3175659,3.86574898 C71.3175659,3.56309248 71.4276228,3.30170732 71.6494563,3.0815935 C71.8678505,2.86147967 72.1292356,2.75142276 72.4318921,2.75142276 L88.486444,2.75142276 C92.2541735,2.75142276 95.2411868,3.64563516 97.4440447,5.43405996 C99.6434633,7.22248476 100.745752,9.6574939 100.745752,12.7390874 C100.745752,16.482742 99.2978158,19.1911738 96.4088219,20.8712613 L101.486917,30.3619502 Z" id="Fill-5" fill="#FFFFFF"></path>
                <path d="M132.088584,16.3173127 C134.002543,17.6861455 134.960382,19.7393948 134.960382,22.4770604 C134.960382,25.2130064 133.569194,27.4296214 130.788537,29.1337839 C128.01132,30.8327874 124.322694,31.6822892 119.729537,31.6822892 C115.134661,31.6822892 111.562971,30.8465445 109.017905,29.166457 C106.474558,27.4915284 105.202025,25.4245221 105.202025,22.9740362 C105.202025,22.3721624 105.518439,22.0729452 106.149546,22.0729452 L114.613611,22.0729452 C115.191409,22.0729452 115.657432,22.2449091 116.013397,22.5802388 C116.787235,23.2818516 118.119955,23.6343776 120.016717,23.6343776 C122.630569,23.6343776 123.940934,23.2491784 123.940934,22.4787801 C123.940934,21.9990007 123.526501,21.6223997 122.701074,21.3438182 C121.875647,21.0652366 120.238551,20.7900943 117.791504,20.5252699 C110.001538,19.6207397 106.109995,16.740344 106.109995,11.8772042 C106.109995,9.13953857 107.361892,6.92808252 109.863967,5.24111644 C112.369481,3.55415036 115.717619,2.70980749 119.916978,2.70980749 C124.111178,2.70980749 127.500587,3.61777701 130.090364,5.43199639 C132.673262,7.24793542 133.96987,9.16361352 133.96987,11.1841896 C133.96987,11.4558926 133.878729,11.6742868 133.699886,11.8393722 C133.519324,12.0010182 133.280294,12.0835609 132.979358,12.0835609 L124.104299,12.0835609 C123.607324,12.0835609 123.180853,11.9270738 122.824888,11.6158191 C122.164546,11.0448988 121.172315,10.7594387 119.853351,10.7594387 C118.008178,10.7594387 117.088171,11.1291612 117.088171,11.8737649 C117.088171,12.2727212 117.444137,12.5839759 118.159507,12.8109683 C118.874877,13.0362411 120.305616,13.270112 122.451726,13.5074222 C126.965779,14.0129961 130.178065,14.9501995 132.088584,16.3173127" id="Fill-7" fill="#FFFFFF"></path>
                <g id="Group-11" transform="translate(178.122840, 2.719639)">
                    <mask id="mask-2" fill="white">
                        <use xlink:href="#path-1"></use>
                    </mask>
                    <g id="Clip-10"></g>
                    <path d="M26.6574736,25.9869863 C23.9473222,27.9714499 20.282771,28.9619621 15.6586611,28.9619621 C11.0362708,28.9619621 7.36828037,27.9714499 4.66156823,25.9869863 C1.95141681,24.0059619 0.594621456,20.9088916 0.594621456,16.6974951 L0.594621456,1.13132086 C0.594621456,0.833823272 0.704678366,0.575877388 0.926511827,0.357483206 C1.14490601,0.140808664 1.40629117,0.0324713923 1.70894768,0.0324713923 L10.334658,0.0324713923 C10.6373145,0.0324713923 10.8986997,0.139089024 11.1205332,0.355763567 C11.3389274,0.57243811 11.4489843,0.830383994 11.4489843,1.12616194 L11.4489843,17.2615368 C11.4489843,18.3689845 11.8290245,19.2219255 12.5839462,19.8169207 C13.3405874,20.4119159 14.3654924,20.7076938 15.6586611,20.7076938 C16.9501101,20.7076938 17.9750151,20.4119159 18.7350957,19.8169207 C19.4900173,19.2219255 19.8700576,18.3689845 19.8700576,17.2615368 L19.8700576,1.12616194 C19.8700576,0.830383994 19.9766752,0.57243811 20.1985087,0.355763567 C20.4203421,0.139089024 20.678288,0.0324713923 20.9843838,0.0324713923 L29.6100941,0.0324713923 C29.9127506,0.0324713923 30.1741358,0.140808664 30.39253,0.357483206 C30.6143635,0.575877388 30.7244204,0.833823272 30.7244204,1.13132086 L30.7244204,16.6974951 C30.7244204,20.9088916 29.367625,24.0059619 26.6574736,25.9869863" id="Fill-9" fill="#FFFFFF" mask="url(#mask-2)"></path>
                </g>
                <g id="Group-14" transform="translate(139.290777, 0.000000)">
                    <mask id="mask-4" fill="white">
                        <use xlink:href="#path-3"></use>
                    </mask>
                    <g id="Clip-13"></g>
                    <path d="M28.5743852,20.8389321 C28.4935622,21.0607655 28.2338967,21.1914581 27.793669,21.239608 C27.3534414,21.2894776 26.2545919,21.3737399 24.5022795,21.4872361 C23.9537146,23.2773805 23.6648152,24.7321953 23.6287028,25.8499608 C23.6201046,26.04428 23.5994689,26.3056652 23.5702351,26.6341163 C23.5375619,26.9660067 23.5220852,27.2256722 23.5220852,27.4148325 C23.5220852,27.6057124 23.3931122,27.7811157 23.1334467,27.9393225 C22.8737812,28.0992489 22.5848818,28.1783523 22.2667485,28.1783523 L17.0046525,28.2557361 C16.077767,28.2557361 15.6169036,27.8774154 15.6169036,27.1190545 C15.6169036,25.7983716 16.1809453,24.0752931 17.3090286,21.949819 C13.861152,22.1527365 11.4966481,22.2541952 10.2155168,22.2541952 C8.93266597,22.2541952 8.11583733,22.178531 7.76159165,22.0340814 C7.40906561,21.887912 6.9963522,21.5852555 6.52001213,21.1175136 C6.04367207,20.6497718 5.80636185,20.257694 5.80636185,19.9412804 C5.80636185,19.843261 5.86826886,19.7125684 5.99036325,19.547483 C6.11417727,19.3841173 6.47186223,18.9524879 7.06857705,18.2525947 C7.66357222,17.5509819 8.21385677,16.873444 8.72115034,16.2165418 C9.22844392,15.5596397 9.78560702,14.7875216 10.3943593,13.8967485 C11.6995655,11.9673133 12.6316099,9.91750335 13.1973713,7.74903829 C13.3383817,7.21938941 13.5344205,6.85482589 13.7837682,6.65190846 C14.0365552,6.44899103 14.4131562,6.34753232 14.9170105,6.34753232 L22.2151594,6.13601669 C22.8497062,6.13601669 23.1644002,6.36472871 23.1644002,6.82387238 C23.1644002,7.03538801 23.093895,7.29505353 22.9528846,7.60286895 C22.8926972,7.73528117 21.9761295,8.665606 20.2049011,10.3938434 C14.9771979,15.4719381 12.3633462,18.2044448 12.3633462,18.5965225 C12.3633462,18.9886003 14.0778265,19.1863588 17.5067872,19.1863588 L18.8687414,19.1863588 C19.0458643,18.8871416 19.2831745,18.4899049 19.5823917,17.9963684 C19.8816089,17.5045516 20.1154799,17.1159132 20.2840045,16.8338923 C20.4508095,16.5518715 20.6313716,16.2388972 20.8256909,15.8949693 C21.1954133,15.2329082 21.4172468,14.7479699 21.4860323,14.4384349 C21.6184446,13.8485986 21.9984848,13.5528207 22.6244335,13.5528207 L24.7516272,13.5803349 C25.3431831,13.5803349 25.7576162,13.6972704 25.9949264,13.9294217 C26.2339562,14.1632926 26.3526113,14.5777257 26.3526113,15.1727208 C26.3526113,15.7659964 25.97773,17.1159132 25.2296869,19.213873 C27.2021131,19.2482658 28.2167003,19.2654622 28.2700091,19.2654622 C28.6122173,19.2654622 28.7841812,19.4511832 28.7841812,19.8209057 C28.7841812,20.1218425 28.7153956,20.4606115 28.5743852,20.8389321 M17.2952715,0.000343927846 C7.79770408,0.000343927846 0.0988792556,7.69916875 0.0988792556,17.1967362 C0.0988792556,26.692584 7.79770408,34.3931285 17.2952715,34.3931285 C26.792839,34.3931285 34.4916638,26.692584 34.4916638,17.1967362 C34.4916638,7.69916875 26.792839,0.000343927846 17.2952715,0.000343927846" id="Fill-12" fill="#FFFFFF" mask="url(#mask-4)"></path>
                </g>
            </g>
        </g>
    </g>
</svg>