<svg xmlns="http://www.w3.org/2000/svg" viewBox="0 0 31 31">
  <defs>
    <style>
      .a {
        fill: #1cbdc3;
      }

      .b {
        fill: #cafffe;
      }
    </style>
  </defs>
  <title>hAsset 1</title>
  <g>
    <path class="a" d="M29.52,12.77a6,6,0,0,0-4.48-2H20.27V6.11A6,6,0,0,0,15.48.27L14.41.05a2.37,2.37,0,0,0-2.75,1.64L7.46,15.5H0V31H29.15L31,17.48A6,6,0,0,0,29.52,12.77ZM7.16,28.58H2.39V17.89H7.16ZM28.61,17.17,27.06,28.58H9.54V16.87l4.4-14.48L15,2.58a3.59,3.59,0,0,1,2.87,3.51v7H25a3.57,3.57,0,0,1,3.61,3.53A3.39,3.39,0,0,1,28.61,17.17Z"/>
    <path class="b" d="M7.16,28.58H2.39V17.89H7.16ZM28.61,17.17,27.06,28.58H9.54V16.87l4.4-14.48L15,2.58a3.59,3.59,0,0,1,2.87,3.51v7H25a3.57,3.57,0,0,1,3.61,3.53A3.39,3.39,0,0,1,28.61,17.17Z"/>
  </g>
</svg>
