<svg xmlns="http://www.w3.org/2000/svg" xmlns:xlink="http://www.w3.org/1999/xlink" id="Layer_1" x="0" y="0" version="1.1" viewBox="0 0 1796 100" xml:space="preserve" style="enable-background:new 0 0 1796 100"><style type="text/css">.st0{fill-rule:evenodd;clip-rule:evenodd;fill:url(#SVGID_1_)}.st5,.st6{fill:none;stroke:#fff;stroke-width:2;stroke-miterlimit:10}.st6{stroke-width:1.5}.st8{fill:#fff}.st9{font-family:&apos;IBMPlexSans-Medium&apos;}.st10{font-size:32px}.st11{font-family:&apos;IBMPlexSans&apos;}.st12{fill:#3d3d3d}.st13{fill:#939598}</style><rect width="1796" height="100"/><linearGradient id="SVGID_1_" x1="42.862" x2="79.71" y1="-925.998" y2="-925.998" gradientTransform="matrix(1 0 0 -1 0 -876)" gradientUnits="userSpaceOnUse"><stop offset="0" style="stop-color:#ab74ff"/><stop offset=".21" style="stop-color:#866aff"/><stop offset=".75" style="stop-color:#2a4fff"/><stop offset="1" style="stop-color:#0645ff"/></linearGradient><path d="M52.4,45.9c0-2.3,1.8-4.1,4.1-4.1s4.1,1.8,4.1,4.1S58.8,50,56.5,50l0,0c-2.2,0.1-4-1.7-4.1-3.9	C52.4,46,52.4,46,52.4,45.9z M77.5,52.5c-0.8-1.1-1.4-2.3-1.9-3.5c1.2-4.5,0.7-8.6-1.8-11.9c-2.9-3.8-8.2-6-14.5-6.1	c-4.5-0.1-8.8,1.7-12,4.8c-3,3-4.6,7.2-4.5,11.5c-0.1,2.9,0.9,5.8,2.7,8.1c0.8,0.8,1.3,1.9,1.4,3v4.5c-0.8,0.5-1.4,1.3-1.4,2.3	c0.2,1.5,1.5,2.6,3,2.4c1.2-0.2,2.2-1.1,2.4-2.4c0-1-0.5-1.9-1.4-2.3v-4.5c0-2-1-3.3-1.9-4.6c-1.5-1.9-2.2-4.2-2.1-6.5	c0-3.5,1.4-6.9,3.8-9.4c2.7-2.7,6.3-4.1,10-4.1c5.5,0,9.8,1.9,12.1,5c2,2.8,2.5,6.3,1.4,9.6c-0.4,1.2,0.6,2.7,2.3,5.6	c0.6,0.9,1.2,1.9,1.6,2.9c-0.9,0.7-2,1.2-3.1,1.5c-0.5,0.4-0.7,0.9-0.8,1.5V65c0,0.4-0.1,0.8-0.4,1.1c-0.3,0.2-0.7,0.3-1.1,0.3	c-1.6-0.3-3.4-0.7-5.2-1.1v-4.8c0.8-0.5,1.4-1.4,1.4-2.3c0-1.5-1.2-2.7-2.7-2.7s-2.7,1.2-2.7,2.7c0,1,0.5,1.9,1.4,2.3v4.1	c-0.4-0.1-0.7-0.1-1.1-0.3c-4.5-1.1-4.5-2.6-4.5-3.4v-8.3c3.2-0.7,5.4-3.5,5.5-6.7c-0.1-3.8-3.3-6.7-7.1-6.6c-3.6,0.1-6.4,3-6.6,6.6	c0,3.2,2.3,6,5.5,6.7v8.3c0,2,0.7,4.6,6.6,6.1c3,0.8,6,1.5,9.1,1.9c0.3,0,0.6,0.1,0.8,0.1c1,0,1.9-0.3,2.6-1	c0.9-0.8,1.4-1.9,1.4-3.1v-4.5c2-0.8,4.1-2,4.1-3.7C79.7,55.9,79,54.6,77.5,52.5z" class="st0"/><g><g><g><defs><path id="SVGID_00000023986984125224352720000009086132040101336737_" d="M52.4,45.9c0-2.3,1.8-4.1,4.1-4.1s4.1,1.8,4.1,4.1 S58.8,50,56.5,50l0,0c-2.2,0.1-4-1.7-4.1-3.9C52.4,46,52.4,46,52.4,45.9z M77.5,52.5c-0.8-1.1-1.4-2.3-1.9-3.5 c1.2-4.5,0.7-8.6-1.8-11.9c-2.9-3.8-8.2-6-14.5-6.1c-4.5-0.1-8.8,1.7-12,4.8c-3,3-4.6,7.2-4.5,11.5c-0.1,2.9,0.9,5.8,2.7,8.1 c0.8,0.8,1.3,1.9,1.4,3v4.5c-0.8,0.5-1.4,1.3-1.4,2.3c0.2,1.5,1.5,2.6,3,2.4c1.2-0.2,2.2-1.1,2.4-2.4c0-1-0.5-1.9-1.4-2.3v-4.5 c0-2-1-3.3-1.9-4.6c-1.5-1.9-2.2-4.2-2.1-6.5c0-3.5,1.4-6.9,3.8-9.4c2.7-2.7,6.3-4.1,10-4.1c5.5,0,9.8,1.9,12.1,5 c2,2.8,2.5,6.3,1.4,9.6c-0.4,1.2,0.6,2.7,2.3,5.6c0.6,0.9,1.2,1.9,1.6,2.9c-0.9,0.7-2,1.2-3.1,1.5c-0.5,0.4-0.7,0.9-0.8,1.5V65 c0,0.4-0.1,0.8-0.4,1.1c-0.3,0.2-0.7,0.3-1.1,0.3c-1.6-0.3-3.4-0.7-5.2-1.1v-4.8c0.8-0.5,1.4-1.4,1.4-2.3c0-1.5-1.2-2.7-2.7-2.7 s-2.7,1.2-2.7,2.7c0,1,0.5,1.9,1.4,2.3v4.1c-0.4-0.1-0.7-0.1-1.1-0.3c-4.5-1.1-4.5-2.6-4.5-3.4v-8.3c3.2-0.7,5.4-3.5,5.5-6.7 c-0.1-3.8-3.3-6.7-7.1-6.6c-3.6,0.1-6.4,3-6.6,6.6c0,3.2,2.3,6,5.5,6.7v8.3c0,2,0.7,4.6,6.6,6.1c3,0.8,6,1.5,9.1,1.9 c0.3,0,0.6,0.1,0.8,0.1c1,0,1.9-0.3,2.6-1c0.9-0.8,1.4-1.9,1.4-3.1v-4.5c2-0.8,4.1-2,4.1-3.7C79.7,55.9,79,54.6,77.5,52.5z"/></defs><clipPath id="SVGID_00000006699542123669355140000017780821947155755945_"><use xlink:href="#SVGID_00000023986984125224352720000009086132040101336737_" style="overflow:visible"/></clipPath><g style="clip-path:url(#SVGID_00000006699542123669355140000017780821947155755945_)"><linearGradient id="SVGID_00000026122523136626835960000002478553622608917946_" x1="-1341.4" x2="449.7" y1="-703.5" y2="-703.5" gradientTransform="matrix(1 0 0 -1 0 -876)" gradientUnits="userSpaceOnUse"><stop offset="0" style="stop-color:#ab74ff"/><stop offset=".21" style="stop-color:#866aff"/><stop offset=".75" style="stop-color:#2a4fff"/><stop offset="1" style="stop-color:#0645ff"/></linearGradient><rect style="fill:url(#SVGID_00000026122523136626835960000002478553622608917946_)" width="1791.1" height="1408.8" x="-1341.4" y="-876.9"/><g><g><g><defs><rect id="SVGID_00000092419828439669074140000018282898976634141093_" width="1791.1" height="1408.8" x="-1341.4" y="-876.9"/></defs><clipPath id="SVGID_00000169539519440569573770000014740891924247314326_"><use xlink:href="#SVGID_00000092419828439669074140000018282898976634141093_" style="overflow:visible"/></clipPath><g style="clip-path:url(#SVGID_00000169539519440569573770000014740891924247314326_)"><linearGradient id="SVGID_00000106844134518210696150000001682923129671618217_" x1="36" x2="86.5" y1="-926.05" y2="-926.05" gradientTransform="matrix(1 0 0 -1 0 -876)" gradientUnits="userSpaceOnUse"><stop offset="0" style="stop-color:#ab74ff"/><stop offset=".21" style="stop-color:#866aff"/><stop offset=".75" style="stop-color:#2a4fff"/><stop offset="1" style="stop-color:#0645ff"/></linearGradient><rect style="fill:url(#SVGID_00000106844134518210696150000001682923129671618217_)" width="50.5" height="51.9" x="36" y="24.1"/></g></g></g></g></g></g></g></g><circle cx="56.5" cy="45.9" r="5.4" class="st5"/><circle cx="48.3" cy="65" r="1.6" class="st6"/><circle cx="64.8" cy="58.2" r="1.6" class="st6"/><linearGradient id="SVGID_00000121260344813135191390000015347433539899256216_" x1="773.8" x2="1796" y1="-926" y2="-926" gradientTransform="matrix(1 0 0 -1 0 -876)" gradientUnits="userSpaceOnUse"><stop offset="0" style="stop-color:#161616"/><stop offset=".52" style="stop-color:#ab74ff"/><stop offset=".62" style="stop-color:#866aff"/><stop offset=".88" style="stop-color:#2a4fff"/><stop offset="1" style="stop-color:#0645ff"/></linearGradient><rect style="opacity:.2;fill:url(#SVGID_00000121260344813135191390000015347433539899256216_);enable-background:new" width="1022.2" height="100" x="773.8"/><text class="st8 st9 st10" transform="matrix(1 0 0 1 1309.5752 59.46)">Incremental learning notebook</text><text class="st8 st11 st10" transform="matrix(1 0 0 1 101.02 59.33)">AutoAI</text><rect width="1" height="32" x="231.1" y="34" class="st12"/><text class="st13 st11 st10" transform="matrix(1 0 0 1 256.29 59.66)">Part of IBM Watson® Studio</text></svg>