<svg id="Layer_1" data-name="Layer 1" xmlns="http://www.w3.org/2000/svg" xmlns:xlink="http://www.w3.org/1999/xlink" viewBox="0 0 99.85 99.15"><defs><style>.cls-1,.cls-2,.cls-33{fill:none;}.cls-2{clip-rule:evenodd;}.cls-3{clip-path:url(#clip-path);}.cls-4{clip-path:url(#clip-path-2);}.cls-5{clip-path:url(#clip-path-3);}.cls-6{isolation:isolate;}.cls-7{clip-path:url(#clip-path-4);}.cls-8{fill:#ececec;}.cls-9{clip-path:url(#clip-path-6);}.cls-10{fill:#fff;}.cls-11{clip-path:url(#clip-path-8);}.cls-12{fill:#1d3749;}.cls-13{clip-path:url(#clip-path-10);}.cls-14{clip-path:url(#clip-path-12);}.cls-15{clip-path:url(#clip-path-14);}.cls-16{fill:#f8f8fc;}.cls-17{clip-path:url(#clip-path-16);}.cls-18{clip-path:url(#clip-path-18);}.cls-19{clip-path:url(#clip-path-19);}.cls-20{clip-path:url(#clip-path-21);}.cls-21{clip-path:url(#clip-path-23);}.cls-22{clip-path:url(#clip-path-25);}.cls-23{clip-path:url(#clip-path-27);}.cls-24{clip-path:url(#clip-path-29);}.cls-25{clip-path:url(#clip-path-31);}.cls-26{clip-path:url(#clip-path-33);}.cls-27{clip-path:url(#clip-path-35);}.cls-28{clip-path:url(#clip-path-37);}.cls-29{clip-path:url(#clip-path-39);}.cls-30{clip-path:url(#clip-path-41);}.cls-31{clip-path:url(#clip-path-43);}.cls-32{clip-path:url(#clip-path-45);}.cls-33{stroke:#1d3749;stroke-miterlimit:10;}</style><clipPath id="clip-path"><circle class="cls-1" cx="-102.5" cy="314.5" r="47.5"/></clipPath><clipPath id="clip-path-2"><circle class="cls-1" cx="49.85" cy="49.69" r="46.5"/></clipPath><clipPath id="clip-path-3"><rect class="cls-1" x="-1044.65" y="-905.81" width="1280" height="1479"/></clipPath><clipPath id="clip-path-4"><rect class="cls-1" x="3.35" y="3.19" width="93" height="93"/></clipPath><clipPath id="clip-path-6"><path class="cls-2" d="M28.34,57.9a5.7,5.7,0,1,1-5.7-5.67,5.68,5.68,0,0,1,5.7,5.67"/></clipPath><clipPath id="clip-path-8"><path class="cls-2" d="M22.64,64.26A6.36,6.36,0,1,1,29,57.9a6.39,6.39,0,0,1-6.41,6.36m0-11.33a5,5,0,1,0,5,5,5,5,0,0,0-5-5"/></clipPath><clipPath id="clip-path-10"><path class="cls-2" d="M81.15,57.9a5.7,5.7,0,1,1-5.7-5.67,5.68,5.68,0,0,1,5.7,5.67"/></clipPath><clipPath id="clip-path-12"><path class="cls-2" d="M75.44,64.26a6.36,6.36,0,1,1,6.41-6.36,6.39,6.39,0,0,1-6.41,6.36m0-11.33a5,5,0,1,0,5,5,5,5,0,0,0-5-5"/></clipPath><clipPath id="clip-path-14"><path class="cls-2" d="M69.81,97.31H28.43a13,13,0,0,1,13-12.94H56.79a13,13,0,0,1,13,12.94"/></clipPath><clipPath id="clip-path-16"><rect class="cls-1" x="27.96" y="83.9" width="42.33" height="13.87"/></clipPath><clipPath id="clip-path-18"><rect class="cls-1" x="27.35" y="83.19" width="43" height="13"/></clipPath><clipPath id="clip-path-19"><path class="cls-2" d="M70.28,97.77H28v-.47A13.47,13.47,0,0,1,41.45,83.9H56.79a13.47,13.47,0,0,1,13.5,13.41ZM28.9,96.84H69.34a12.54,12.54,0,0,0-12.55-12H41.45A12.54,12.54,0,0,0,28.9,96.84Z"/></clipPath><clipPath id="clip-path-21"><path class="cls-2" d="M49.12,88.72h0a4.88,4.88,0,0,1-4.9-4.86V77.28H54v6.58a4.88,4.88,0,0,1-4.9,4.86"/></clipPath><clipPath id="clip-path-23"><path class="cls-2" d="M49.12,89.42a5.59,5.59,0,0,1-5.6-5.56V76.58h11.2v7.28A5.59,5.59,0,0,1,49.12,89.42ZM44.93,78v5.89a4.2,4.2,0,0,0,8.39,0V78Z"/></clipPath><clipPath id="clip-path-25"><path class="cls-2" d="M76.71,51.33A27.59,27.59,0,1,1,49.12,23.92,27.5,27.5,0,0,1,76.71,51.33"/></clipPath><clipPath id="clip-path-27"><path class="cls-2" d="M49.12,79.43a28.11,28.11,0,1,1,28.3-28.1,28.23,28.23,0,0,1-28.3,28.1m0-54.81A26.71,26.71,0,1,0,76,51.33,26.83,26.83,0,0,0,49.12,24.62"/></clipPath><clipPath id="clip-path-29"><path class="cls-2" d="M41.75,67.22c.13.31,1.8,4.17,5.8,4.94a8.36,8.36,0,0,0,8.93-4.94"/></clipPath><clipPath id="clip-path-31"><path class="cls-2" d="M48.9,72.75a7.5,7.5,0,0,1-1.43-.14c-4.2-.8-6-4.77-6.14-5.22a.47.47,0,0,1,.26-.61.47.47,0,0,1,.61.25c.07.16,1.67,3.94,5.45,4.66A7.93,7.93,0,0,0,56.06,67a.47.47,0,0,1,.85.39,9.06,9.06,0,0,1-8,5.34"/></clipPath><clipPath id="clip-path-33"><polyline class="cls-2" points="45.96 51.96 45.04 59.13 50.33 61.32"/></clipPath><clipPath id="clip-path-35"><path class="cls-2" d="M50.33,61.79a.49.49,0,0,1-.18,0l-5.62-2.33,1-7.52a.47.47,0,0,1,.52-.4.46.46,0,0,1,.41.52l-.87,6.82,5,2.06a.47.47,0,0,1-.18.9"/></clipPath><clipPath id="clip-path-37"><path class="cls-2" d="M37.55,54a2,2,0,1,1-2-2,2,2,0,0,1,2,2"/></clipPath><clipPath id="clip-path-39"><path class="cls-2" d="M61.65,54a2,2,0,1,1-2-2,2,2,0,0,1,2,2"/></clipPath><clipPath id="clip-path-41"><path class="cls-2" d="M61.63,31.08c0,3.54-5.47,6.42-12.21,6.42s-12.21-2.87-12.21-6.42,5.41-7.39,12.15-7.39,12.27,3.85,12.27,7.39"/></clipPath><clipPath id="clip-path-43"><path class="cls-2" d="M22.43,55l1.47-.27C22.41,48.25,23.69,44.6,25,42.51,28,37.9,33,37.84,38.26,31.85a26.48,26.48,0,0,0,4.27-6.68,30.62,30.62,0,0,0-9.35,4.44C28.68,33,23.94,38.23,22.86,43.73,20.81,54.21,22.43,55,22.43,55"/></clipPath><clipPath id="clip-path-45"><path class="cls-2" d="M75.67,55l-1.47-.27c1.49-6.44.21-10.08-1.12-12.18-2.93-4.61-8-4.67-13.23-10.66a26.46,26.46,0,0,1-4.27-6.68,30.62,30.62,0,0,1,9.35,4.44c4.51,3.39,9.24,8.63,10.32,14.13C77.3,54.21,75.67,55,75.67,55"/></clipPath></defs><title>gregory</title><g class="cls-4"><g class="cls-5"><g class="cls-6"><g class="cls-7"><g class="cls-7"><rect class="cls-8" x="-1.65" y="-1.81" width="103" height="103"/></g><g class="cls-9"><g class="cls-7"><rect class="cls-10" x="11.93" y="47.23" width="21.41" height="21.33"/></g></g><g class="cls-11"><g class="cls-7"><rect class="cls-12" x="11.23" y="46.54" width="22.81" height="22.73"/></g></g><g class="cls-13"><g class="cls-7"><rect class="cls-10" x="64.74" y="47.23" width="21.41" height="21.33"/></g></g><g class="cls-14"><g class="cls-7"><rect class="cls-12" x="64.04" y="46.54" width="22.81" height="22.73"/></g></g><g class="cls-15"><g class="cls-7"><rect class="cls-16" x="23.43" y="79.37" width="51.39" height="22.94"/></g></g><g class="cls-17"><g class="cls-7"><g class="cls-6"><g class="cls-18"><g class="cls-19"><g class="cls-18"><rect class="cls-12" x="22.96" y="78.9" width="52.33" height="23.87"/></g></g></g></g></g></g><g class="cls-20"><g class="cls-7"><rect class="cls-16" x="39.22" y="72.28" width="19.8" height="21.45"/></g></g><g class="cls-21"><g class="cls-7"><rect class="cls-12" x="38.52" y="71.58" width="21.2" height="22.85"/></g></g><g class="cls-22"><g class="cls-7"><rect class="cls-16" x="16.53" y="18.92" width="65.18" height="64.81"/></g></g><g class="cls-23"><g class="cls-7"><rect class="cls-12" x="15.82" y="18.23" width="66.59" height="66.21"/></g></g><g class="cls-24"><g class="cls-7"><rect class="cls-16" x="36.75" y="62.22" width="24.73" height="15.07"/></g></g><g class="cls-25"><g class="cls-7"><rect class="cls-12" x="36.28" y="61.75" width="25.67" height="16"/></g></g><g class="cls-26"><g class="cls-7"><rect class="cls-16" x="40.04" y="46.96" width="15.29" height="19.37"/></g></g><g class="cls-27"><g class="cls-7"><rect class="cls-12" x="39.53" y="46.49" width="16.27" height="20.3"/></g></g><g class="cls-28"><g class="cls-7"><rect class="cls-12" x="28.54" y="47.02" width="14.02" height="13.99"/></g></g><g class="cls-29"><g class="cls-7"><rect class="cls-12" x="52.63" y="47.02" width="14.02" height="13.99"/></g></g><g class="cls-30"><g class="cls-7"><rect class="cls-12" x="32.21" y="18.69" width="34.42" height="23.81"/></g></g><g class="cls-31"><g class="cls-7"><rect class="cls-12" x="16.82" y="20.17" width="30.71" height="39.8"/></g></g><g class="cls-32"><g class="cls-7"><rect class="cls-12" x="50.57" y="20.17" width="30.71" height="39.8"/></g></g><g class="cls-7"><path class="cls-33" d="M40.17,58.94H31.4a2.26,2.26,0,0,1-2.27-2.25V52.78a2.66,2.66,0,0,1,2.67-2.66h8a2.67,2.67,0,0,1,2.67,2.66v3.91A2.26,2.26,0,0,1,40.17,58.94Z"/><path class="cls-33" d="M63.81,58.94H55a2.26,2.26,0,0,1-2.27-2.25V52.78a2.66,2.66,0,0,1,2.67-2.66h8a2.66,2.66,0,0,1,2.67,2.66v3.91A2.26,2.26,0,0,1,63.81,58.94Z"/><path class="cls-33" d="M52.76,54.77a8.41,8.41,0,0,0-6.29-1.86,8,8,0,0,0-4.08,1.86"/><line class="cls-33" x1="66.02" y1="54.82" x2="76.76" y2="52.79"/><line class="cls-33" x1="29.55" y1="54.82" x2="19.75" y2="52.86"/></g></g></g></g></g></svg>