<svg xmlns="http://www.w3.org/2000/svg" xmlns:xlink="http://www.w3.org/1999/xlink" id="Layer_1" data-name="Layer 1" viewBox="0 0 99.85 99.15"><defs><style>.cls-1,.cls-2{fill:none}.cls-2{clip-rule:evenodd}.cls-3{clip-path:url(#clip-path)}.cls-4{clip-path:url(#clip-path-2)}.cls-5{isolation:isolate}.cls-6{clip-path:url(#clip-path-3)}.cls-7{fill:#ececec}.cls-8{clip-path:url(#clip-path-5)}.cls-9{clip-path:url(#clip-path-7)}.cls-10{clip-path:url(#clip-path-8)}.cls-11{fill:#1d3749}.cls-12{clip-path:url(#clip-path-10)}.cls-13{fill:#fff}.cls-14{clip-path:url(#clip-path-12)}.cls-15{clip-path:url(#clip-path-14)}.cls-16{clip-path:url(#clip-path-16)}.cls-17{clip-path:url(#clip-path-18)}.cls-18{fill:#f8f8fc}.cls-19{clip-path:url(#clip-path-20)}.cls-20{clip-path:url(#clip-path-22)}.cls-21{clip-path:url(#clip-path-24)}.cls-22{clip-path:url(#clip-path-26)}.cls-23{clip-path:url(#clip-path-28)}.cls-24{clip-path:url(#clip-path-30)}.cls-25{clip-path:url(#clip-path-32)}.cls-26{clip-path:url(#clip-path-34)}.cls-27{clip-path:url(#clip-path-36)}.cls-28{clip-path:url(#clip-path-38)}.cls-29{clip-path:url(#clip-path-40)}.cls-30{clip-path:url(#clip-path-42)}</style><clipPath id="clip-path"><circle cx="49.78" cy="49.35" r="48.41" class="cls-1"/></clipPath><clipPath id="clip-path-2"><rect width="1304.63" height="1507.46" x="-141.33" y="-926.57" class="cls-1"/></clipPath><clipPath id="clip-path-3"><rect width="96.83" height="96.83" x="1.36" y=".94" class="cls-1"/></clipPath><clipPath id="clip-path-5"><rect width="56.75" height="69.7" x="22.13" y="31.32" class="cls-1"/></clipPath><clipPath id="clip-path-7"><rect width="58.1" height="67.27" x="21.75" y="30.5" class="cls-1"/></clipPath><clipPath id="clip-path-8"><path d="M78.88,101H22.13V60a28.38,28.38,0,1,1,56.75,0Z" class="cls-2"/></clipPath><clipPath id="clip-path-10"><path d="M28.87,58.58a5.94,5.94,0,1,1-5.94-6,6,6,0,0,1,5.94,6" class="cls-2"/></clipPath><clipPath id="clip-path-12"><path d="M22.93,65.33a6.75,6.75,0,1,1,6.67-6.75,6.72,6.72,0,0,1-6.67,6.75m0-12a5.27,5.27,0,1,0,5.21,5.27,5.24,5.24,0,0,0-5.21-5.27" class="cls-2"/></clipPath><clipPath id="clip-path-14"><path d="M83.85,58.58a5.94,5.94,0,1,1-5.94-6,6,6,0,0,1,5.94,6" class="cls-2"/></clipPath><clipPath id="clip-path-16"><path d="M77.91,65.33a6.75,6.75,0,1,1,6.67-6.75,6.72,6.72,0,0,1-6.67,6.75m0-12a5.27,5.27,0,1,0,5.21,5.27,5.24,5.24,0,0,0-5.21-5.27" class="cls-2"/></clipPath><clipPath id="clip-path-18"><path d="M72,100.38H29A13.65,13.65,0,0,1,42.52,86.66h16A13.65,13.65,0,0,1,72,100.38" class="cls-2"/></clipPath><clipPath id="clip-path-20"><path d="M72.54,100.88H28.47v-.49A14.15,14.15,0,0,1,42.52,86.16h16a14.15,14.15,0,0,1,14.05,14.22Zm-43.08-1h42.1A13.17,13.17,0,0,0,58.48,87.15h-16A13.17,13.17,0,0,0,29.45,99.89Z" class="cls-2"/></clipPath><clipPath id="clip-path-22"><path d="M50.5,91.28h0a5.13,5.13,0,0,1-5.1-5.16v-7H55.6v7a5.13,5.13,0,0,1-5.1,5.16" class="cls-2"/></clipPath><clipPath id="clip-path-24"><path d="M50.5,92a5.87,5.87,0,0,1-5.83-5.9V78.39H56.33v7.72A5.87,5.87,0,0,1,50.5,92ZM46.13,79.87v6.24a4.37,4.37,0,1,0,8.74,0V79.87Z" class="cls-2"/></clipPath><clipPath id="clip-path-26"><path d="M79.23,51.61A28.73,28.73,0,1,1,50.5,22.54,28.9,28.9,0,0,1,79.23,51.61" class="cls-2"/></clipPath><clipPath id="clip-path-28"><path d="M50.5,81.42A29.82,29.82,0,1,1,80,51.61,29.67,29.67,0,0,1,50.5,81.42m0-58.15a28.33,28.33,0,1,0,28,28.33,28.2,28.2,0,0,0-28-28.33" class="cls-2"/></clipPath><clipPath id="clip-path-30"><path d="M22.33,53.17c2.34-.64,8.92-2.68,13.6-8.13a25.62,25.62,0,0,0,5.31-10.12c0,.18.82,1.07.95,1.22q.61.76,1.26,1.49a34.42,34.42,0,0,0,11.29,8.62c4.73,2.17,9.87,3,14.93,4,2.68.52,5.36,1.13,8,1.68,0,0,1.71.53,1.71.56s-.2-21.72-19.57-28.74c-10-3.63-19.2,1.24-21.23,2.13C19.66,34.15,22.35,52.17,22.33,53.17" class="cls-2"/></clipPath><clipPath id="clip-path-32"><path d="M42.83,68.46c.13.33,1.88,4.43,6,5.24a8.67,8.67,0,0,0,9.3-5.24" class="cls-2"/></clipPath><clipPath id="clip-path-34"><path d="M50.27,74.33a7.74,7.74,0,0,1-1.49-.14c-4.38-.85-6.2-5.06-6.4-5.54a.5.5,0,0,1,.27-.64.49.49,0,0,1,.64.27c.07.17,1.74,4.17,5.68,4.94a8.22,8.22,0,0,0,8.76-5,.49.49,0,0,1,.65-.24.5.5,0,0,1,.24.66,9.42,9.42,0,0,1-8.34,5.66" class="cls-2"/></clipPath><clipPath id="clip-path-36"><polyline points="47.7 55.83 46.74 60.72 52.25 62.21" class="cls-2"/></clipPath><clipPath id="clip-path-38"><path d="M52.25,62.7l-.13,0-6-1.62,1-5.34a.49.49,0,1,1,1,.19l-.87,4.44,5.07,1.38a.5.5,0,0,1,.35.6.49.49,0,0,1-.47.37" class="cls-2"/></clipPath><clipPath id="clip-path-40"><path d="M40,54.46A2.09,2.09,0,1,1,38,52.34,2.1,2.1,0,0,1,40,54.46" class="cls-2"/></clipPath><clipPath id="clip-path-42"><path d="M65.14,54.46A2.09,2.09,0,1,1,63,52.34a2.1,2.1,0,0,1,2.09,2.12" class="cls-2"/></clipPath></defs><title>alice</title><g class="cls-3"><g class="cls-4"><g class="cls-5"><g class="cls-6"><g class="cls-6"><rect width="107.02" height="107.02" x="-3.73" y="-4.16" class="cls-7"/></g><g class="cls-8"><g class="cls-6"><g class="cls-5"><g class="cls-9"><g class="cls-10"><g class="cls-9"><rect width="66.94" height="79.89" x="17.03" y="26.22" class="cls-11"/></g></g></g></g></g></g><g class="cls-12"><g class="cls-6"><rect width="22.07" height="22.21" x="11.89" y="47.47" class="cls-13"/></g></g><g class="cls-14"><g class="cls-6"><rect width="23.53" height="23.69" x="11.16" y="46.73" class="cls-11"/></g></g><g class="cls-15"><g class="cls-6"><rect width="22.07" height="22.21" x="66.87" y="47.47" class="cls-13"/></g></g><g class="cls-16"><g class="cls-6"><rect width="23.53" height="23.69" x="66.14" y="46.73" class="cls-11"/></g></g><g class="cls-17"><g class="cls-6"><rect width="53.28" height="23.92" x="23.86" y="81.56" class="cls-18"/></g></g><g class="cls-19"><g class="cls-6"><rect width="54.26" height="24.91" x="23.37" y="81.07" class="cls-11"/></g></g><g class="cls-20"><g class="cls-6"><rect width="20.39" height="22.34" x="40.31" y="74.04" class="cls-18"/></g></g><g class="cls-21"><g class="cls-6"><rect width="21.86" height="23.82" x="39.57" y="73.3" class="cls-11"/></g></g><g class="cls-22"><g class="cls-6"><rect width="67.65" height="68.34" x="16.68" y="17.44" class="cls-18"/></g></g><g class="cls-23"><g class="cls-6"><rect width="69.11" height="69.82" x="15.95" y="16.7" class="cls-11"/></g></g><g class="cls-24"><g class="cls-6"><rect width="67.37" height="40.96" x="17.11" y="17.31" class="cls-11"/></g></g><g class="cls-25"><g class="cls-6"><rect width="25.53" height="15.57" x="37.74" y="63.36" class="cls-18"/></g></g><g class="cls-26"><g class="cls-6"><rect width="26.51" height="16.55" x="37.25" y="62.87" class="cls-11"/></g></g><g class="cls-27"><g class="cls-6"><rect width="15.7" height="16.58" x="41.64" y="50.73" class="cls-18"/></g></g><g class="cls-28"><g class="cls-6"><rect width="16.76" height="17.57" x="41.08" y="50.24" class="cls-11"/></g></g><g class="cls-29"><g class="cls-6"><rect width="14.37" height="14.42" x="30.77" y="47.25" class="cls-11"/></g></g><g class="cls-30"><g class="cls-6"><rect width="14.37" height="14.42" x="55.86" y="47.25" class="cls-11"/></g></g></g></g></g></g></svg>